<svg xmlns="http://www.w3.org/2000/svg" viewBox="0 0 251.5591 378.6879"><defs><style>.cls-1{fill:#ffe589;}.cls-1,.cls-10,.cls-11,.cls-12,.cls-14,.cls-15,.cls-17,.cls-18,.cls-19,.cls-20,.cls-21,.cls-22,.cls-23,.cls-24,.cls-25,.cls-26,.cls-27,.cls-28,.cls-29,.cls-3,.cls-34,.cls-35,.cls-36,.cls-38,.cls-39,.cls-40,.cls-41,.cls-42,.cls-43,.cls-44,.cls-45,.cls-46,.cls-50,.cls-51,.cls-52,.cls-55,.cls-6,.cls-7,.cls-8{fill-rule:evenodd;}.cls-2{fill:#fff3a7;}.cls-13,.cls-3{fill:#def0d7;}.cls-4,.cls-6{fill:#34475b;}.cls-5,.cls-8{fill:#0c361a;}.cls-53,.cls-7{fill:#fff;}.cls-9{fill:#94d5bd;}.cls-10{fill:#2e584a;}.cls-11{fill:#e1a27e;}.cls-12{fill:#f8cbb0;}.cls-14,.cls-16{fill:#13162d;}.cls-15{fill:#0e0d1a;}.cls-17{fill:#390a0a;}.cls-18{fill:#280a0f;}.cls-19{fill:#e5e5e5;}.cls-20{fill:#ed3543;}.cls-21{fill:#be171f;}.cls-22{fill:#963940;}.cls-23{fill:#b8933b;}.cls-24{fill:#f3d8c8;}.cls-25{fill:#980608;}.cls-26{fill:#f8d0b7;}.cls-27{fill:#fecc6e;}.cls-28{fill:#dba64d;}.cls-29{fill:#fcf9e3;}.cls-30{fill:#6d1f8b;}.cls-31{fill:#44057e;}.cls-32{fill:#6ec5a7;}.cls-33{fill:#834fa3;}.cls-34{fill:#caebea;}.cls-35{fill:#6da59d;}.cls-36{fill:#80a4b1;}.cls-37{fill:#edf8fb;}.cls-38{fill:#e3f5f9;}.cls-39{fill:#c2e8f1;}.cls-40{fill:#fed990;}.cls-41{fill:#feedc5;}.cls-42{fill:#4a007d;}.cls-43{fill:#69228c;}.cls-44{fill:#5b218c;}.cls-45{fill:#e3961e;}.cls-46,.cls-48{fill:#d02f28;}.cls-47{fill:#a71913;}.cls-49{fill:#fc3426;}.cls-50{fill:#fa675e;}.cls-51{fill:#d4eade;}.cls-52{fill:#abcdbd;}.cls-54{fill:#7ba89b;}.cls-55{fill:#f79008;}.cls-56{fill:#8858a8;}</style></defs><title>Ресурс 1</title><g id="Слой_2" data-name="Слой 2"><g id="Слой_1-2" data-name="Слой 1"><path class="cls-1" d="M125.78,378.6879c69.2764,0,125.7788-7.5264,125.7788-16.7559,0-9.2246-56.5024-16.7471-125.7788-16.7471S0,352.7074,0,361.932C0,371.1615,56.5039,378.6879,125.78,378.6879Z"/><circle class="cls-2" cx="92.091" cy="33.3951" r="5.7221" transform="translate(-3.8295 13.5145) rotate(-8.2229)"/><path class="cls-2" d="M107.63,51.0106l-4.4443,11.1255.0005.0049L98.7412,73.2665l-.2578.6465-.686.0991L85.9395,75.7255,74.0821,77.4393l-.6831.0987-.4341-.5518-7.41-9.4087-.0019.0015L58.14,58.1669,57.71,57.62l.2583-.646,4.4453-11.126.002.001,4.4433-11.1221.26-.6513.6831-.0991L79.66,32.2631l11.8574-1.7139.6856-.0986.4311.5464,7.4126,9.4126.0005.0043,7.4126,9.4126.4272.5425-.2563.6416Zm-6.6748,10.2359,4.1875-10.481L98.16,41.8993l-.002.0015-6.9819-8.8653L80.0039,34.65,68.83,36.264,64.645,46.7387l.001.0043L60.459,57.2225l6.9819,8.8653.0005.0044,6.979,8.8613,11.1744-1.6147,11.1718-1.6143,4.187-10.479Z"/><circle class="cls-2" cx="105.3473" cy="50.5701" r="5.7222" transform="translate(-6.1496 15.5869) rotate(-8.2228)"/><circle class="cls-2" cx="68.3757" cy="35.839" r="5.7222" transform="translate(-4.4237 10.1502) rotate(-8.2248)"/><circle class="cls-2" cx="59.898" cy="57.1376" r="5.7219" transform="translate(-7.5561 9.154) rotate(-8.2226)"/><circle class="cls-2" cx="97.7819" cy="72.7785" r="5.7222" transform="translate(-9.4063 14.738) rotate(-8.2253)"/><circle class="cls-2" cx="74.1928" cy="76.0967" r="5.7222" transform="translate(-10.1202 11.3928) rotate(-8.2223)"/><rect class="cls-2" x="105.2549" y="48.0798" width="17.9649" height="2.4115" transform="matrix(0.9897, -0.143, 0.143, 0.9897, -5.8743, 16.8445)"/><circle class="cls-2" cx="125.2435" cy="48.1015" r="5.7222" transform="translate(-5.5918 18.406) rotate(-8.2223)"/><circle class="cls-2" cx="53.1488" cy="16.3451" r="5.7221" transform="translate(-1.7913 7.7696) rotate(-8.2229)"/><path class="cls-2" d="M69.09,35.6127,64.645,46.7387l.001.0043L60.2007,57.8685l-.2583.647-.6855.0991L47.399,60.328,35.5415,62.0414l-.6831.0986-.4341-.5512-7.41-9.4092-.002.0014L19.6,42.7689l-.4311-.5468.2588-.6465L23.8721,30.45l.002.001,4.4438-11.1221.26-.6514.6831-.0986,11.8574-1.7134,11.8579-1.7134.6855-.0991.4307.5469,7.4126,9.4121,0,.0049,7.4131,9.4121.4272.5425-.2563.6416ZM62.4151,45.8485l4.187-10.48-6.9829-8.8667-.002.0015-6.9819-8.8652L41.4634,19.2518,30.2891,20.8666,26.1045,31.3407l0,.0049-4.1865,10.479L28.9,50.69l0,.0049,6.9785,8.8613,11.1748-1.6152,11.1719-1.6143,4.187-10.479Z"/><circle class="cls-2" cx="29.6269" cy="18.9009" r="5.7222" transform="translate(-2.3985 4.4313) rotate(-8.2223)"/><circle class="cls-2" cx="21.8788" cy="41.7808" r="5.7221" transform="translate(-5.7504 3.5585) rotate(-8.2224)"/><circle class="cls-2" cx="35.3691" cy="60.848" r="5.7222" transform="translate(-8.3386 5.6838) rotate(-8.2223)"/><circle class="cls-2" cx="64.9727" cy="98.172" r="5.7225" transform="translate(-13.3753 10.304) rotate(-8.2244)"/><path class="cls-2" d="M72.5318,76.4052l-6.9825-8.8663-.0019.0015-6.9819-8.8657L47.3936,60.2894,36.2188,61.9037,32.0342,72.3783l.0005.0044-4.1865,10.48L34.83,91.7274l.001.0044,6.9785,8.8613,11.1743-1.6147,11.1719-1.6143,4.187-10.4795.002.0015,4.187-10.4809ZM67.4361,66.0536l7.4126,9.4121.4272.543L75.02,76.65,70.5752,87.7758l.0005.0048L66.13,98.9061l-.2583.6465-.6855.0991-11.8575,1.7134L41.4712,103.079l-.6831.0986-.4336-.5513-7.4106-9.4091-.0015.0014-7.4131-9.4121-.4306-.5473.2583-.6465,4.4448-11.1255.0024.001,4.4434-11.1221.26-.6514.6831-.0991,11.8575-1.7129,11.8579-1.7139.6855-.0986.4307.5464,7.4126,9.4126Z"/><circle class="cls-2" cx="41.6894" cy="102.3794" r="5.7222" transform="translate(-14.2131 7.0145) rotate(-8.2223)"/><circle class="cls-2" cx="27.7814" cy="82.6289" r="5.7222" transform="translate(-11.5315 4.8225) rotate(-8.2223)"/><circle class="cls-2" cx="14.6479" cy="5.722" r="5.7223" transform="translate(0.8486 13.264) rotate(-49.9964)"/><rect class="cls-2" x="20.3274" y="2.5139" width="2.4019" height="17.965" transform="translate(-1.1171 20.597) rotate(-49.9966)"/><circle class="cls-2" cx="30.9462" cy="119.3069" r="5.7222" transform="translate(-85.5863 79.1573) rotate(-56.4482)"/><rect class="cls-2" x="26.9283" y="110.62" width="17.9648" height="2.4016" transform="matrix(0.5527, -0.8334, 0.8334, 0.5527, -77.1261, 79.9433)"/><circle class="cls-2" cx="161.4141" cy="88.9964" r="8.8266" transform="translate(-4.8088 168.6507) rotate(-54.4742)"/><path class="cls-2" d="M197.6177,90.4691l7.6567,16.82.0059.004,7.6563,16.82.4448.977-.6206.87-10.7383,15.0411-10.7378,15.04-.6187.8662-1.0771-.104-18.3882-1.7783-.0005.0034L152.8057,153.25l-1.0689-.1035-.4448-.9776-7.6567-16.82.0034-.001-7.6538-16.8144-.4487-.9849.6191-.8662,10.7378-15.04,10.7378-15.0406.6211-.87,1.0688.1035,18.3946,1.7789.0063.0039,18.394,1.7793,1.0606.103.4414.9692Zm4.2866,18.3555L194.6914,92.98l-17.3281-1.6763v.0039l-17.3257-1.6758L149.92,103.8031l-10.12,14.1743,7.2085,15.8345.0059.0044,7.2114,15.8423,17.3257,1.6758.0063.0044,17.3174,1.6748,10.1191-14.1744,10.1172-14.1709-7.2114-15.8422Z"/><circle class="cls-2" cx="194.6916" cy="92.5441" r="8.8267" transform="translate(6.249 197.2274) rotate(-54.4764)"/><circle class="cls-2" cx="138.8428" cy="118.0297" r="8.8264" transform="translate(-37.8915 162.4521) rotate(-54.4768)"/><circle class="cls-2" cx="153.5338" cy="150.1935" r="8.8263" transform="matrix(0.5811, -0.8139, 0.8139, 0.5811, -57.9153, 187.876)"/><circle class="cls-2" cx="211.3695" cy="124.6612" r="8.8265" transform="translate(-12.9051 224.2523) rotate(-54.4752)"/><circle class="cls-2" cx="189.9071" cy="154.4861" r="8.8265" transform="translate(-46.1701 219.2798) rotate(-54.4752)"/><rect class="cls-2" x="188.8866" y="79.4076" width="27.7112" height="3.7199" transform="translate(18.7983 199.0531) rotate(-54.4758)"/><circle class="cls-2" cx="213.1621" cy="67.7403" r="8.8264" transform="matrix(0.581, -0.8139, 0.8139, 0.581, 34.1749, 201.8686)"/><circle class="cls-2" cx="100.8796" cy="114.2051" r="8.8265" transform="translate(-50.6844 129.9487) rotate(-54.4755)"/><path class="cls-2" d="M139.3526,116.9926l7.6567,16.8193.0059.0044,7.6562,16.82.4453.9776-.6211.87-10.7378,15.04-10.7382,15.04-.6187.8667-1.0771-.1045-18.3882-1.7783-.0005.0039-18.3945-1.7793-1.0689-.1035-.4448-.977-7.6563-16.82.003-.0014L77.72,145.057l-.4483-.9849.6182-.8662,10.7378-15.041,10.7382-15.04.6211-.87,1.0689.103,18.3945,1.7788.0059.0044,18.3945,1.7793,1.0606.1025.4414.97Zm4.2861,18.3554-7.2124-15.8442-17.3281-1.6763v.0034l-17.3262-1.6753L91.6553,130.3265,81.5362,144.5l7.208,15.8349.0058.0044,7.2115,15.8423,17.3261,1.6758.0059.0039,17.3174,1.6753L140.73,165.3627l10.1172-14.1709-7.2119-15.8428Z"/><circle class="cls-2" cx="78.6393" cy="143.1422" r="8.8265" transform="translate(-83.5528 123.9712) rotate(-54.4755)"/><circle class="cls-2" cx="95.8706" cy="176.1791" r="8.8264" transform="translate(-103.2219 151.8396) rotate(-54.4765)"/><circle class="cls-2" cx="131.5056" cy="181.4838" r="8.8265" transform="translate(-92.6096 183.0605) rotate(-54.4755)"/><circle class="cls-2" cx="204.6716" cy="188.3057" r="8.8267" transform="translate(-67.5081 245.4695) rotate(-54.4762)"/><path class="cls-2" d="M188.4795,156.6659,171.1514,154.99v.0034l-17.3262-1.6753-10.1167,14.1709L133.5894,181.663l7.208,15.8349.0058.0039,7.2115,15.8428,17.3261,1.6753.0059.0044,17.3174,1.6748,10.1191-14.1743L202.9,188.3539l-7.2119-15.8423.0034-.0015-7.2124-15.8442Zm-16.97-5.3623,18.3945,1.7793,1.0611.1025.4409.9693,7.6567,16.82.0059.0044,7.6567,16.82.4448.9776-.621.87-10.7383,15.04-10.7378,15.04-.6187.8667-1.0771-.1045-18.3882-1.7783-.0005.0039-18.3945-1.7793-1.0689-.1035-.4448-.977-7.6567-16.82.0034-.0014L129.773,182.22l-.4488-.9849.6187-.8667,10.7383-15.04,10.7378-15.04.6211-.87,1.0688.1035,18.3945,1.7788Z"/><circle class="cls-2" cx="184.5263" cy="218.7382" r="8.8265" transform="translate(-100.7167 241.8199) rotate(-54.4755)"/><circle class="cls-2" cx="147.6838" cy="213.1701" r="8.8267" transform="translate(-111.6202 209.5066) rotate(-54.4764)"/><circle class="cls-2" cx="47.9774" cy="145.7767" r="8.8264" transform="translate(-15.5819 6.0881) rotate(-6.2487)"/><rect class="cls-2" x="47.8949" y="142.4162" width="27.7109" height="3.7045" transform="translate(-15.3407 7.581) rotate(-6.2507)"/><circle class="cls-2" cx="191.9298" cy="248.7641" r="8.8265" transform="translate(-49.9936 48.2805) rotate(-12.6998)"/><rect class="cls-2" x="187.0309" y="221.3924" width="3.705" height="27.711" transform="translate(-47.0979 47.2816) rotate(-12.7002)"/><path class="cls-3" d="M56.8433,199.5907l-3.0464,1.3438a.4175.4175,0,0,0-.2124.5488l3.8672,8.8823a.417.417,0,0,0,.5488.2129l3.0464-1.3438a.4181.4181,0,0,0,.2124-.5488l-3.8672-8.8823A.4167.4167,0,0,0,56.8433,199.5907Z"/><path class="cls-4" d="M51.6115,199.0252H58.71a.2081.2081,0,0,1,.2081.2081v1.6646a.2078.2078,0,0,1-.2078.2078H51.6115a.2081.2081,0,0,1-.2081-.2081v-1.6643a.2081.2081,0,0,1,.2081-.2081Z" transform="translate(-76.0666 39.2914) rotate(-23.8078)"/><path class="cls-5" d="M58.8429,209.1357h5.2717a.6592.6592,0,0,1,.6592.6592v9.0862a.6595.6595,0,0,1-.6595.6595H58.843a.6591.6591,0,0,1-.6591-.6591v-9.0868a.659.659,0,0,1,.659-.659Z" transform="translate(-81.272 43.0411) rotate(-23.8017)"/><path class="cls-6" d="M63.9434,219.578h0a2.0067,2.0067,0,0,0-1.22,2.5327l1.375,3.1162a2.0067,2.0067,0,0,0,2.6933.8062h0a2.0073,2.0073,0,0,0,1.22-2.5327l-1.375-3.1162A2.0059,2.0059,0,0,0,63.9434,219.578Z"/><path class="cls-7" d="M65.0088,225.4735a1.3039,1.3039,0,0,0,1.4072.1758h0a1.2728,1.2728,0,0,0,.8086-1.2886C66.5659,224.7172,65.687,225.1771,65.0088,225.4735Z"/><path class="cls-6" d="M59.9981,220.9745h0a1.32,1.32,0,0,0-.6324,1.7495l1.0137,2.2979a1.32,1.32,0,0,0,1.7183.7124h0a1.32,1.32,0,0,0,.6323-1.75l-1.0137-2.2978A1.32,1.32,0,0,0,59.9981,220.9745Z"/><path class="cls-5" d="M57.506,228.767H74.497a.7437.7437,0,0,1,.7437.7437v.9916a.7437.7437,0,0,1-.7437.7437H57.5058a.7436.7436,0,0,1-.7436-.7436v-.9915A.7439.7439,0,0,1,57.506,228.767Z" transform="translate(-87.2253 46.211) rotate(-23.8062)"/><rect class="cls-4" x="64.2661" y="233.3046" width="7.5386" height="4.6548"/><ellipse class="cls-4" cx="68.0356" cy="233.3158" rx="3.7693" ry="0.7935"/><ellipse class="cls-4" cx="68.0356" cy="237.9594" rx="3.7693" ry="0.7934"/><path class="cls-8" d="M56.9458,213.1386l-4.7778,2.1079a.6175.6175,0,0,0-.3662.7866l2.5708,5.8281a.618.618,0,0,0,.8286.26l4.7778-2.1074a.6182.6182,0,0,0,.3658-.7872l-2.5708-5.8281A.6179.6179,0,0,0,56.9458,213.1386Z"/><circle class="cls-4" cx="58.4359" cy="216.7531" r="2.4275" transform="translate(-82.5131 42.0246) rotate(-23.8042)"/><ellipse class="cls-9" cx="68.0357" cy="233.224" rx="2.7554" ry="0.5273"/><path class="cls-8" d="M57.354,233.183c.2793.6323,1.5254,3.2344-.9048,4.1269-6.8833,2.5284-5.87-16.0161-1.6367-15.103-.2041-.4629-.5229-4.71-1.8125-4.1147s-5.978,5.623-5.333,13.6572,4.3648,10.2173,6.8443,10.3164c3.3618.1343,7.4414-2.6665,7.6025-6.1987a15.0393,15.0393,0,0,0-.4048-3.7925Z"/><path class="cls-8" d="M56.5943,250.4965a5.5544,5.5544,0,1,0-5.5547-5.5542A5.5656,5.5656,0,0,0,56.5943,250.4965Z"/><path class="cls-6" d="M70.4746,244.9423H51.5288a2.7854,2.7854,0,0,0-2.7773,2.7773h0a2.7855,2.7855,0,0,0,2.7773,2.7778H70.4746A2.7859,2.7859,0,0,0,73.252,247.72h0A2.7858,2.7858,0,0,0,70.4746,244.9423Z"/><path class="cls-10" d="M67.7759,235.06l-14.2212,7.0234a.7582.7582,0,0,0-.38.9805l.4.9072a.7359.7359,0,0,0,.981.38l14.2212-7.0235a.7585.7585,0,0,0,.38-.9809l-.4-.9073A.7346.7346,0,0,0,67.7759,235.06Z"/><circle class="cls-4" cx="57.7689" cy="241.5111" r="0.6875"/><path class="cls-3" d="M68.1992,216.2723l-12.1835,5.375c-.2085.0918-.3287.2813-.2666.4209l.8955,2.0308c.0615.14.2822.1787.4907.0864l12.1836-5.3745c.2085-.0918.3281-.2812.2666-.4209l-.896-2.0307C68.628,216.22,68.4073,216.1805,68.1992,216.2723Z"/><circle class="cls-4" cx="67.665" cy="236.3373" r="0.6876"/><path class="cls-11" d="M184.126,155.3632s-1.001-8.1-1.6685-11.19,7.09-2.5044,8.5914-2.2544,3.8364,2.2544,3.5029,2.9229-6.6924,11.26-6.6924,11.26S184.8765,156.1981,184.126,155.3632Z"/><path class="cls-12" d="M184.126,155.3627s-.4731-3.8252-.9849-7.2212c1.0494.3242,4.0122,1.2026,4.62,1.0054.7407-.2413,2.4443,0,2.2915.3056-.0884.1763-1.5928,3.6924-2.854,6.647C186.2749,156.0751,184.6519,155.9481,184.126,155.3627Z"/><path class="cls-11" d="M138.2046,158.8954c.1035-.148.2764-3.439,1.09-3.5859,1.2592-.2281,2.6406,6.5249,1.0527,6.894a4.1429,4.1429,0,0,1-2.0054-.3232A23.8761,23.8761,0,0,1,138.2046,158.8954Z"/><rect class="cls-13" x="122.6577" y="288.6566" width="6.9165" height="49.6367"/><path class="cls-14" d="M120.7173,318.6156h10.1865a1.2764,1.2764,0,0,1,1.2735,1.2725v29.8945H119.4439V319.8881A1.2766,1.2766,0,0,1,120.7173,318.6156Z"/><path class="cls-15" d="M117.7774,331.0883h16.0664a2.0131,2.0131,0,0,1,2.0078,2.0078v17.2383H115.7691V333.0961A2.0135,2.0135,0,0,1,117.7774,331.0883Z"/><path class="cls-14" d="M100.1319,345.7914H151.29c4.4179,0,4.4175,6.6933,0,6.6933H100.1319C95.7144,352.4847,95.7139,345.7914,100.1319,345.7914Z"/><circle class="cls-16" cx="102.8739" cy="354.5788" r="4.4662"/><circle class="cls-16" cx="125.9644" cy="354.5788" r="4.4663"/><circle class="cls-16" cx="149.0551" cy="354.5788" r="4.4662"/><path class="cls-15" d="M125.5371,290.976c12.1392,0,22.0406-4.6612,22.0406-10.375s-9.9014-10.3741-22.0406-10.3741-22.04,4.66-22.04,10.3741S113.3975,290.976,125.5371,290.976Z"/><path class="cls-17" d="M103.9366,237.392s-13.4649,32.62-12.816,35.3974-1.83,7.3233,22.3775,10.1719,53.7055-4.9219,53.7055-10.4141-10.3823-19.3828-10.3823-19.3828Z"/><path class="cls-18" d="M103.9366,237.6346s-9.3282,22.5992-12.0811,31.7769c1.7837,2.168,6.7339,4.4678,21.1523,6.1641,21.2837,2.5039,46.6514-3.1993,52.4712-8.3467a102.3082,102.3082,0,0,0-8.6577-13.8223Z"/><path class="cls-17" d="M99.6782,174.1757c-5.7,1.6284-9.7719,1.2212-9.7719,5.2929s11.539,74.8941,16.832,79.2925,29.2549,1.8135,29.2549,1.8135,12.6221-1.3018,12.6221-3.6641,19.8735-74.1845,14.5805-80.292S99.6782,174.1757,99.6782,174.1757Z"/><path class="cls-12" d="M118.0928,159.0648c-.1621-.14-1.3237-3.8608-2.3-3.791-1.51.1074-1.1148,8.2515.813,8.21a4.9013,4.9013,0,0,0,2.2041-.958A28.291,28.291,0,0,0,118.0928,159.0648Z"/><path class="cls-11" d="M117.1114,158.9022c-.2085-.5586-1.2774-1.2334-1.1148.418s.813,2.6987,1.2544,2.2568S117.46,158.9721,117.1114,158.9022Z"/><path class="cls-17" d="M117.3394,156.8085c-.9321-1.7427-4.8472-5.1758-4.9966-6.2178-.0664-.46-3.3452-4.7261-3.4805-8.2783s3.5264-1.1216,3.5264-1.1216a5.7868,5.7868,0,0,1-1.7915-3.9717,6.2172,6.2172,0,0,1,.0088-1.6748c.2407-1.4609,1.1684-1.7729,2.1045-1.26a13.19,13.19,0,0,0,3.6894,1.041c.6216-.2686-1.6714-1.8413-.9062-3.2271,1.0058-1.82,4.3774.4048,5.9824,1.7715s3.7783,3.2236,6.6143.7481c.4638-.4043,3.2158-4.7,4.5556-1.4141.5786,1.4194-1.5522,2.7471,3.8858.0874,1.9145-.9365,2.19-1.79,2.665-1.6616,2.4795.67.0024,3.4394,1.8394,3.769.2348.042.9956-.8393,1.8877-.3432,1.6171.9,2.36,6.3725,1.4912,7.3359-.2525.28,1.2456-.541,1.311-.2041,1.22,6.1943-2.9849,11.15-7.2046,14.4619C138.5215,156.6488,131.4746,163.704,117.3394,156.8085Z"/><path class="cls-18" d="M117.3394,156.8085a7.6159,7.6159,0,0,0-.7969-1.1353,16.57,16.57,0,0,1-1.7446-7.9023c.1015-4.5874,1.8589-3.0581,2.2153-3.4658s-.2036-.4844-.229-1.6822,1.375-.4839,3.106-.28,1.6543-1.2745,1.7817-1.9624,4.3784.7636,5.8042,1.1206,3.0552-1.4268,4.6338-1.6817,1.12,1.6309,3.2075,1.3252,3.3608-4.2817,3.0552-5.7085a21.9873,21.9873,0,0,0-1.0869-2.5556c1.2466-.7583,1.5073-1.36,1.9111-1.251,2.4795.67.0024,3.4394,1.8394,3.769.2348.042.9956-.8393,1.8877-.3428,1.6167.8995,2.36,6.3721,1.4912,7.3355-.2525.28,1.2451-.54,1.311-.2041,1.22,6.1943-2.9849,11.15-7.2046,14.4619a12.4919,12.4919,0,0,1-5.95,2.8184c-3.8672-.2481-8.1772-.584-11.2134-.9927A34.5215,34.5215,0,0,1,117.3394,156.8085Z"/><path class="cls-7" d="M145.8057,199.4882c4.4463.6464,18.4009,21.0151,27.1885,20.6723,8.0337-.313,15.9292-52.187,16.8217-58.7021a14.3916,14.3916,0,0,1,1.9942-5.293l-9.79-1.57s-12.7222,53.3091-13.8609,51.3569-15.8432-21.6191-15.8432-21.6191S145.48,197.8617,145.8057,199.4882Z"/><path class="cls-19" d="M176.0332,215.079c6.53-13.1563,12.2447-50.8379,11.7051-56.2407a5.5866,5.5866,0,0,0-.7764-2.48l-13.98,61.1255a1.46,1.46,0,0,0,1.459-.0943A7.568,7.568,0,0,0,176.0332,215.079Z"/><path class="cls-19" d="M147.4522,198.9447c4.188.6089,17.331,19.794,25.6084,19.4712a2.1616,2.1616,0,0,0,1.0766-.373c-1.3056-1.483-3.7251-4.1968-4.2651-5.59a20.9968,20.9968,0,0,1-.9019-5.2661,1.8685,1.8685,0,0,0-.3188-1.3232c-.0576.04-.1025.0337-.1362-.024-.28.1372-.6724,2.8594-.6724,2.8594s-.5513-.72-.791-.12a4.4779,4.4779,0,0,0,.0146,1.8569l-13.2182-20.2988s-1.8589,1.4019-4.5415,3.5063C148.1958,196.1537,147.3355,198.3612,147.4522,198.9447Z"/><path class="cls-17" d="M106.5493,344.0072c.2041.6113-1.5825,3.9141-1.4252,3.67.123-.19-4.5684,5.1934-6.9483,8.2959-3.5268,4.5977,3.648,6.7559,6.5581,4.7549,3.5879-2.4668,7.32-11.0566,7.876-12.5693.7119-1.9356-.71-1.8487-.71-1.8487A14.1861,14.1861,0,0,0,106.5493,344.0072Z"/><path class="cls-20" d="M106.6245,250.2367l41.1656.4756,1.4614-19.8062,4.4473-37.687a39.1668,39.1668,0,0,0-.2251-6.7822c-1.1387-4.2241-5.5826-3.603-10.27-3.7124-8.5146-.1982-36.4316-4.5986-42.9814,2.4155-1.4541,1.5576,2.8291,27.2432,5.4136,42.8726C106.5342,233.4408,106.4488,248.6679,106.6245,250.2367Z"/><path class="cls-21" d="M153.7071,190.2826a16.9631,16.9631,0,0,0-.2334-2.6348c-1.1387-4.2241-5.5826-3.603-10.27-3.7124-8.5146-.1982-36.4316-4.5986-42.9814,2.4156-.2691.2876-.3413,1.4047-.2642,3.1289,3.8784-2.12,16.3565-3.9429,29.022-2.46C138.833,188.1722,148.75,189.6434,153.7071,190.2826Z"/><path class="cls-22" d="M106.6245,250.2367l41.1656.4756,1.4614-19.8062,4.4468-37.687a39.1172,39.1172,0,0,0-.2246-6.7822,4.2511,4.2511,0,0,0-2.7818-3.1079c-2.5932,12.605-7.6675,48.3091-8.0942,50.7856-.5088,2.9566-1.3071,5.5157-7.41,5.7188s-17.6982,0-24.208-4.6787c-5.4463-3.9146-7.4746-40.1446-7.9922-51.8809a8.4815,8.4815,0,0,0-2.7646,1.8662c-1.4541,1.5571,2.8291,27.2432,5.4136,42.8726C106.5342,233.4408,106.4488,248.6679,106.6245,250.2367Z"/><path class="cls-19" d="M140.6714,182.5956c-1.2324-.085-5.477-1.8618-6.8525-2.1411-4.4951-.9107-6.8321-.9522-12.9912-1.0093-1.4888-.0142-5.0264,1.7436-6.4527,1.8,1.7163,4.6538,5.3379,12.7715,7.9961,16.6816,3.459,5.0855,7.12,2.2373,7.73,1.22S140.6577,182.6166,140.6714,182.5956Z"/><path class="cls-23" d="M123.1856,198.9789c2.7221,3.062,5.4131,1.7134,6.501.6655l-1.4976-4.5732s3.4121-4.1792,3.31-4.4341-8.3-2.396-10.6417-.7139c.1016.4585,3.6939,4.9912,3.6939,4.9912Z"/><path class="cls-11" d="M135.3208,182.141l-1.4038-.0327-2.2539-10.4253-8.2246-.082s-.896,2.8535-1.2217,3.832c-.207.6216-1.3784,3.9829-2.2051,6.3516l-1.14-.0264c-.0015.0644-.0024.1279-.0024.1919a8.236,8.236,0,0,0,.3056,2.2246l0,.0019.0015.001a8.2271,8.2271,0,0,0,16.1445-2.0366Z"/><path class="cls-12" d="M131.0923,177.4506s.5039,8.8623,1.7422,8.8613,1.37-.3027,1.1616-.9536-2.021-8.21-2.021-8.21Z"/><path class="cls-12" d="M122.6709,175.9706c-.395,1.15-1.3506,3.8887-2.0552,5.9072l-1.1391-.0264c-.002.0635-.0025.1275-.0025.1919a8.2516,8.2516,0,0,0,.3057,2.2256l-.0015.001.0025,0a8.23,8.23,0,0,0,7.92,5.999,8.3179,8.3179,0,0,0,1.4082-.1206c-.04-2.83-.4326-12.0244-.4326-12.0244A36.5341,36.5341,0,0,1,122.6709,175.9706Z"/><path class="cls-7" d="M118.76,181.7553s-5.0483,6.5283-3.3648,8.5878c2.2159,2.7115,7.3614,1.066,9.8785-.37a36.2946,36.2946,0,0,0,7.8906,2.4922c3.1172.374,5.05-1.623,5.2993-2.9336s-3.1426-7.3906-3.1426-7.3906l-1.8452-2.0718s.499,4.5317-1.6831,5.53-4.9258,2.4341-6.4844,1.8725-3.9277-1.56-4.6753-3.1836.1949-4.8437.1949-4.8437Z"/><path class="cls-12" d="M116.6241,146.7465c.1044,3.2949.3129,6.69.7158,10.06a67.3632,67.3632,0,0,0,1.8823,9.9033c2.22,8.0308,4.01,9.5279,10.8779,9.7085,7.253.19,8.8389-8.9433,8.8623-14.5249.0279-6.5522-1.1-16.9575-1.1-16.9575S122.711,139.6527,116.6241,146.7465Z"/><path class="cls-11" d="M123.4927,144.2548c.54-.0567,1.5215-.0884,3.5737-.0977a32.0789,32.0789,0,0,1,9.1783,1.5039s.72,15.6782-.09,19.1026a23.243,23.243,0,0,1-3.3306,8.1088c-.1171.1788-.2412.3638-.37.5523-.4194.6162-.8843,1.2744-1.3042,1.9209,5.4185-.416,5.7691-6.1807,6.9263-9.6655,1.2016-3.6148-.6626-20.8072-.6626-20.8072s-7.627-2.6587-14.0928-1.5683a14.264,14.264,0,0,0-2.3135.5825C121.8926,144.9833,122.4756,144.3612,123.4927,144.2548Z"/><path class="cls-24" d="M117.4868,150.4193c.1182,2.03.2886,4.08.5328,6.12a65.0959,65.0959,0,0,0,1.8227,9.5918c1.0557,3.816,2.312,6.1519,4.0293,7.5425-.4014-.38-3.5273-16.0405-3.6611-21.3066C120.1231,148.9227,117.0928,143.6361,117.4868,150.4193Z"/><path class="cls-11" d="M125.34,161.8676c.3252,1.4414,3.4428,3.2363,5.872,2.2988s1.8365-3.0322,2.3057-2.0664-.9756,2.791-3.2524,3.6743-4.5537-1.5342-4.8789-2.186c-.0762-.1524-.17-.3233-.2574-.4961C124.8433,162.5277,124.6284,161.9388,125.34,161.8676Z"/><path class="cls-15" d="M117.3511,155.559l2.5708-1.918c.6929-1.9668,8.9854-1.9248,8.9873-.0332a10.3338,10.3338,0,0,1-.415,3.2456c-.4888,1.1265-3.0557,2.7354-5.7173,2.3779-2.1563-.29-2.6865-2.2329-2.8457-4.1279l-2.31,2.7417c-1.0527,1.25-.9614-1.4639-.27-2.2861Zm3.8184-1.1382c.0522,1.519.2212,3.4341,2.0332,3.6777,1.8623.25,3.916-.9131,4.2578-1.7007a7.26,7.26,0,0,0,.291-2.2715C127.75,152.7318,121.1148,152.8,121.1695,154.4208Z"/><path class="cls-15" d="M139.0547,153.0809c-1.5859-1.44-7.7051-1.1587-7.708.5464a10.1821,10.1821,0,0,0,.41,3.2036,4.4807,4.4807,0,0,0,4.8022,2.2266c1.7271-.2324,2.3975-1.54,2.6724-3.0229l-.1763-2.9537Zm-.91,1.229c-.0518,1.4991-.2168,3.3882-2.0064,3.6294a3.1359,3.1359,0,0,1-3.3613-1.5586,7.0941,7.0941,0,0,1-.2871-2.2412C132.4922,152.7616,138.1988,152.71,138.1446,154.31Z"/><path class="cls-24" d="M128.9986,148.27c-6.83.0928-8.5957.4653-9.3858-.8838s2.1377-2.3721,6.0864-2.4653,5.8086.186,6.18,1.5351S131.9722,148.3163,128.9986,148.27Z"/><path class="cls-24" d="M123.0537,178.4042s-2.1606,6.0708-1.2539,6.0239,1.6953-4.9307,1.7652-5.5122S124.0762,177.3109,123.0537,178.4042Z"/><path class="cls-23" d="M99.9366,251.723s-29.54,9.27-28.7876,18.77,31.184,75.3906,35.2714,76.1337S111.9,346.31,111.9,346.31l-22.1728-74.331,39.2387-9.1729.8624-9.74S113.6348,240.5888,99.9366,251.723Z"/><path class="cls-23" d="M149.1753,251.9447s28.7964,11.87,28.044,21.37-29.3262,84.3076-33.4131,85.0508a50.8551,50.8551,0,0,0-6.3164,1.4863l21.1518-85.0507L120.146,263.0277l-.8628-9.74S135.4766,240.81,149.1753,251.9447Z"/><path class="cls-10" d="M106.5308,244.6386l-1.7393,5.5981s44.062,1.1162,44.1284.291-.6567-6.2329-.6567-6.2329Z"/><path class="cls-12" d="M120.9263,244.0243s9.0405.6045,11.7383,3.2109l2.6977,2.607s-20.2719-.0059-20.2719-.38S118.083,244.39,120.9263,244.0243Z"/><path class="cls-7" d="M100.2227,184.4135c-.085.0678,2.0449-1.7207-.2549.208s-26.312,58.1508-25.2925,61.5,2.9131,3.1655,8.7388,3.1655,36.8662.4619,36.8662.4619l-.1392-6.4639-31.0463-5.1743s10.6318-18.3447,14.2788-25.5649C102.5283,205.0765,100.958,191.1674,100.2227,184.4135Z"/><path class="cls-19" d="M75.9116,243.3309a4.4989,4.4989,0,0,0-.2187,1.7618c.9937,3.2646,2.8394,3.0854,8.5171,3.0854s35.9311.45,35.9311.45l-.0014-.0825a10.9447,10.9447,0,0,1-.0659-3.0674c.4565-1.5791-32.47,1.0264-40.5088-.7622A10.27,10.27,0,0,1,75.9116,243.3309Z"/><path class="cls-19" d="M88.0689,237.9056s10.6318-18.3452,14.2793-25.5649c-.271-2.395-.6177-5.4517-.9859-8.7222L86.9907,236.9672s-3.5131,1.2226-4.3784,1.5288-1.12,2.2934-.102,2.1919a15.8573,15.8573,0,0,0,3.4624-1.3765s-.357,2.4468.2036,2.09A7.2348,7.2348,0,0,0,87.5,239.21a8.3676,8.3676,0,0,0,.5606,2.1407C88.315,241.5546,88.0689,237.9056,88.0689,237.9056Z"/><path class="cls-24" d="M126.5728,162.12c-.229.4077,1.2221,1.8857,2.7495,1.7842s2.1382-.7647,1.833-1.4273S128.6826,161.2782,126.5728,162.12Z"/><path class="cls-15" d="M128.0108,153.702l3.8784-.0669.0923,1.5821a5.0833,5.0833,0,0,0-.8457-.6109c-.4512-.249-1.7725-.4048-2.0992.0464s-.7534,1-.7534,1Z"/><path class="cls-25" d="M123.4033,167.5092a7.4447,7.4447,0,0,0,6.2627,2.5483,5.4975,5.4975,0,0,0,4.2769-2.7524c.2036-.51.458,1.5795.2036,1.8349s-.7363,1.7158-3.666,1.9878S123.8614,170.0067,123.4033,167.5092Z"/><path class="cls-18" d="M121.3882,150.9843c-.4326-.1529-.4839-.2549-.4077-.6626s.1528-.9175,1.7568-1.1983,3.5132.2549,3.8438.8159.23.9683,0,1.07-.229.2808-.7378.0767-.8618-1.0283-1.9712-.9731a2.559,2.559,0,0,0-1.9243.7182C121.897,151.035,121.3882,150.9843,121.3882,150.9843Z"/><path class="cls-18" d="M132.5879,151.9672c-.4472-.104-.5088-.2-.478-.6138s.0513-.9287,1.6147-1.3833,3.52-.1328,3.91.3882.3345.9375.1177,1.0644-.1968.3037-.7256.1568-.9693-.9273-2.0659-.7505a2.5556,2.5556,0,0,0-1.8335.9248C133.0991,151.9618,132.5879,151.9672,132.5879,151.9672Z"/><path class="cls-17" d="M121.6685,155.8807c.0439-.8745,2.4971-1.853,3.7934-1.2885s1.3086,1.373,1.3086,1.373-.1157.1548-.3437-.0591a2.2355,2.2355,0,0,0-1.7637-.8672c-1.8618.0469-1.5278.8936-2.0381,1.0962S121.7139,156.3749,121.6685,155.8807Z"/><path class="cls-17" d="M123.4888,154.89s-.51,1.3941.8442,1.648,1.4644-.9688,1.2281-1.5733c-.107-.2734-.5264-.0893-.9268-.1352C124.1519,154.7743,123.6734,154.5453,123.4888,154.89Z"/><path class="cls-17" d="M132.8555,155.622c.0439-.875,2.4971-1.8536,3.7939-1.2891s1.3077,1.373,1.3077,1.373-.1148.1553-.3428-.059a2.2362,2.2362,0,0,0-1.7637-.8672c-1.8618.0473-1.5283.894-2.0386,1.0962S132.9009,156.1156,132.8555,155.622Z"/><path class="cls-17" d="M134.313,154.63s-.51,1.3945.8438,1.6479,1.4643-.9683,1.228-1.5732c-.1065-.2735-.5264-.0894-.9263-.1348C134.9761,154.5155,134.4971,154.2865,134.313,154.63Z"/><path class="cls-12" d="M182.813,145.3236s-2.1382-14.271-1.4253-16.5137a2.1955,2.1955,0,0,1,3.9712-.51c.6109,1.2231-.7129,16.4121-.7129,16.4121S182.7637,144.9877,182.813,145.3236Z"/><path class="cls-26" d="M184.3921,139.67c.1572.354.47-1.1465,2.8237-1.3374s2.0591,2.2295,2.0591,2.2295,2.3325-1.0825,3.16-.51a2.2929,2.2929,0,0,1,.7,1.9112s1.4014.2553,1.5913,1.083c.2979,1.2988.1475,3.5024-.8984,4.3969a1.2567,1.2567,0,0,1-.9829.3189c-.3218-.0777-.6343-.56-.7735-.5181a.7028.7028,0,0,1-.23-.59,2.9048,2.9048,0,0,1,.2984-1.1773,9.7652,9.7652,0,0,1-1.0122,1.3872c-.125.1382.1772.0659-.0005.1553-.84.1235-3.4478-.0923-3.5308-1.1328a6.2384,6.2384,0,0,1,.0381-1.1743s-.4106,1.5888-1.4238,1.8354c-3.2388-.6391-2.7178-2.2593-2.603-3.8261C183.7407,140.8905,184.2871,139.4325,184.3921,139.67Z"/><path class="cls-12" d="M183.377,149.7548c-1.4258-.2036-2.7827-5.2266-.8555-6.4673s6.1289-1.8643,6.6768-.8316a1.3951,1.3951,0,0,1-1.4375,1.95c-.8658-.2036-3.1519,1.23-3.1519,1.23a17.8188,17.8188,0,0,1-.1723,3.7666C184.2124,150.121,183.4458,149.8041,183.377,149.7548Z"/><path class="cls-27" d="M139.7071,219.66l.0244-2.85c-.252-.66-1.9439-.8471-2.2632-.102a18.6012,18.6012,0,0,0-.1245,2.896Z"/><path class="cls-28" d="M138.1953,216.473a.628.628,0,0,0-.6377.4317,18.6039,18.6039,0,0,0-.125,2.8955l.7349.0176Z"/><path class="cls-29" d="M139.6006,219.8368l.0239-2.85a.8322.8322,0,0,0-.3256-.3589l-.0269,3.2007Z"/><rect class="cls-30" x="126.823" y="229.1535" width="23.2967" height="2.6991" transform="translate(-93.1903 367.0273) rotate(-89.5172)"/><rect class="cls-31" x="126.0743" y="230.0858" width="23.297" height="0.7854" transform="translate(-93.6974 366.6131) rotate(-89.606)"/><rect class="cls-32" x="127.6484" y="230.2268" width="23.2972" height="0.5271" transform="translate(-92.353 367.8503) rotate(-89.5197)"/><rect class="cls-33" x="127.6865" y="230.1892" width="23.297" height="0.603" transform="translate(-92.3128 367.8936) rotate(-89.5209)"/><rect class="cls-31" x="128.8461" y="231.0756" width="21.7581" height="0.1885" transform="matrix(0.0087, -1, 1, 0.0087, -92.6465, 368.887)"/><path class="cls-34" d="M139.8638,222.204l.1685-.353.0293-3.5513c.0043-.4819-2.939-.56-2.9434.0005l-.0225,3.3432a.6609.6609,0,0,0,.1612.4478c0-.0288.0024-.062.0014-.0933,0-.0234,0-.0425.0005-.0586.0137-.2548,2.522-.2412,2.5928.149C139.8633,222.1517,139.8609,222.2123,139.8638,222.204Z"/><path class="cls-7" d="M139.8638,222.204l.1685-.3535.0293-3.5508c.0014-.1475-.2618-.2568-.6275-.3218l-.0327,3.8794c.2529.0523.4316.1284.45.231C139.8633,222.1517,139.8609,222.2123,139.8638,222.204Z"/><path class="cls-35" d="M138.0576,217.9222c-.5166.04-.9379.1612-.9394.378l-.0225,3.3432a.6609.6609,0,0,0,.1612.4478c0-.0288.0024-.062.0014-.0933,0-.0234,0-.0425.0005-.0586.0054-.0957.3428-.1538.7661-.1684Z"/><path class="cls-36" d="M137.27,218.1014a.2455.2455,0,0,0-.1518.1988l-.0225,3.3432a.6158.6158,0,0,0,.1416.4161Z"/><ellipse class="cls-37" cx="139.6493" cy="218.8252" rx="0.2088" ry="0.2214" transform="translate(-80.0858 357.0384) rotate(-89.6248)"/><path class="cls-35" d="M140.39,221.8353h0a.4007.4007,0,0,1-.4136.3838l-2.7925-.02a.3994.3994,0,0,1-.4072-.39h0a.4006.4006,0,0,1,.4136-.3838l2.792.021A.3993.3993,0,0,1,140.39,221.8353Z"/><path class="cls-38" d="M140.39,221.8353h0a.4007.4007,0,0,1-.4136.3838l-.5254-.0039.0171-.7734.5142.0034A.4.4,0,0,1,140.39,221.8353Z"/><path class="cls-39" d="M140.2046,221.7616h0a.2488.2488,0,0,1-.2563.2378l-2.3-.0171a.2487.2487,0,0,1-.253-.2412v0a.2489.2489,0,0,1,.2569-.2373l2.3.0166A.2479.2479,0,0,1,140.2046,221.7616Z"/><ellipse class="cls-37" cx="139.9645" cy="221.7651" rx="0.2432" ry="0.2581" transform="translate(-82.8519 360.0498) rotate(-89.567)"/><path class="cls-27" d="M139.6929,242.3466c.0005-.0865.0718-.399-.0156-.3448-.12.0743-.0054-.5254-.3472-.9414-.1333-.102-.2881.7622-.4434,1-.12.1841-.0976-.2339-.1406-.499-.0127-.0776-.0244-.1509-.0356-.2051-.0518-.2392-.0845-.6528-.1929-.54a4.2658,4.2658,0,0,0-.2148.68c-.0274.0727-.18-.4214-.2139-.35-.1494.3139-.1455,1.0459-.3037.83s-.1885-.563-.4-.5649a.9641.9641,0,0,0-.36.7285c.0093.3032.7237,2.9346.8785,3.3745a9.064,9.064,0,0,0,.3432.8662c.1338.2862.3291.2783.4082.0381Z"/><path class="cls-40" d="M139.73,242.0931c-.001-.0483-.0215-.11-.0532-.0913-.1206.0743-.0967-.5254-.3472-.9414-.1333-.102-.2881.7627-.4434,1-.0244.0371-.0429.05-.0571.044v.0005c-.0762.9326-.4331,3.17-.3613,3.3256s.2593.0581.2593.0581l1.0014-3.3486Z"/><path class="cls-28" d="M137.91,241.8964a3.1823,3.1823,0,0,0-.4732-.4756,1.0363,1.0363,0,0,0-.2851.8515c.2363,1.0367.5107,2.4927.71,3.0581.0235.0665.0865.314.107.3716.0727-.1191.1733-.2583.1733-.2583C137.99,244.4618,137.9893,242.6991,137.91,241.8964Z"/><path class="cls-41" d="M139.2422,242.0907a26.7867,26.7867,0,0,0-.5034,3.3555c.1074-.0908.832-3.1822.832-3.1822A.3938.3938,0,0,0,139.2422,242.0907Z"/><path class="cls-42" d="M139.0332,244.8973c-.395-.22-1.3662-.14-1.3056.0264.041.1138.2822,1.0151.43,1.792.0258.1343.0439.2642.0727.3833.0274.1157.2349.1108.293-.0352Z"/><path class="cls-43" d="M138.28,244.8143c-.19.0249-.3164.0743-.28.1328.0537.0875.0865.85.2334,1.627.0259.1343.044.2642.0723.3833a.098.098,0,0,0,.0078.0215l.0254.0312c.0313.0259.04.0235.0874.0132-.0059-.0346-.1392-2.1636-.1352-2.207Z"/><path class="cls-44" d="M138.4566,244.9174c-.0039.2714.0024,1.7866-.0332,2.1328,0,0,.0459-.0147.0571-.0474.0015-.0054.3345-1.6294.4023-1.9936C138.9151,244.8383,138.4575,244.8705,138.4566,244.9174Z"/><path class="cls-7" d="M138.7569,245.0116a5.85,5.85,0,0,0-.3335,2.0386,14.5692,14.5692,0,0,0,.4594-2.041Z"/><path class="cls-35" d="M140.4224,220.3065h0a.4.4,0,0,1-.4131.3838l-2.7925-.02a.4.4,0,0,1-.4077-.39h0a.4011.4011,0,0,1,.4141-.3838l2.792.02A.3992.3992,0,0,1,140.4224,220.3065Z"/><path class="cls-38" d="M140.4224,220.3065h0a.4.4,0,0,1-.4131.3838l-.5254-.0039.0171-.7734.5142.0034A.3992.3992,0,0,1,140.4224,220.3065Z"/><path class="cls-34" d="M140.2373,220.2323h0a.248.248,0,0,1-.2558.2383l-2.3-.0171a.2476.2476,0,0,1-.2525-.2417h0a.2487.2487,0,0,1,.2559-.2378l2.3008.0171A.2467.2467,0,0,1,140.2373,220.2323Z"/><ellipse class="cls-37" cx="139.9773" cy="220.2446" rx="0.2432" ry="0.2581" transform="translate(-81.3187 358.5536) rotate(-89.567)"/><path class="cls-35" d="M140.4033,218.9657h0a.402.402,0,0,1-.414.3843l-2.792-.021a.4006.4006,0,0,1-.4077-.39h0a.4008.4008,0,0,1,.414-.3838l2.792.02A.4005.4005,0,0,1,140.4033,218.9657Z"/><path class="cls-38" d="M140.4033,218.9657h0a.402.402,0,0,1-.414.3843l-.5254-.0044.0176-.7735.5141.0035A.4005.4005,0,0,1,140.4033,218.9657Z"/><path class="cls-34" d="M140.2178,218.892h0a.2486.2486,0,0,1-.2563.2383l-2.3-.0176a.247.247,0,0,1-.252-.2412h0a.248.248,0,0,1,.2559-.2378l2.3007.0171A.2472.2472,0,0,1,140.2178,218.892Z"/><ellipse class="cls-37" cx="139.9616" cy="218.8959" rx="0.2432" ry="0.2581" transform="translate(-79.9855 357.1997) rotate(-89.5671)"/><path class="cls-45" d="M140.19,235.5394c.3071-2.1469,3.6816-30.0595,3.6816-30.0595s-.2051-.6441,2.0156-.4908,2.8335,1.3018,2.8335,1.3018L145.01,240.77S140.19,245.6615,140.19,235.5394Z"/><path class="cls-27" d="M134.4595,218.015l-.3784-2.9595c-.34-.6508-2.0186-.62-2.2261.1949a20.6826,20.6826,0,0,0,.2876,3.02Z"/><path class="cls-28" d="M132.5323,214.91a.6245.6245,0,0,0-.5625.5323,20.7385,20.7385,0,0,0,.2876,3.02l.72-.08Z"/><path class="cls-29" d="M134.38,218.2123l-.3789-2.959a.8617.8617,0,0,0-.3691-.3291l.4257,3.3237Z"/><polygon class="cls-46" points="134.554 217.162 137.635 241.245 135.012 241.689 131.914 217.5 134.554 217.162"/><rect class="cls-47" x="133.6607" y="217.3066" width="0.7746" height="24.3858" transform="translate(-28.1125 18.922) rotate(-7.3103)"/><rect class="cls-48" x="135.328" y="217.1094" width="0.5199" height="24.3858" transform="translate(-28.0299 19.0814) rotate(-7.298)"/><rect class="cls-49" x="136.009" y="218.5624" width="0.1861" height="22.7757" transform="translate(-28.0476 19.1049) rotate(-7.2816)"/><path class="cls-34" d="M134.9717,220.6327l.1148-.3892-.4722-3.6865c-.064-.501-2.9512-.19-2.8765.3916l.45,3.47a.72.72,0,0,0,.2207.4434c-.0039-.03-.0068-.0645-.0117-.0967-.0039-.0244-.0063-.0449-.0078-.0615-.0225-.2661,2.43-.585,2.5542-.19C134.9639,220.5785,134.9707,220.641,134.9717,220.6327Z"/><path class="cls-7" d="M134.9717,220.6327l.1148-.3892-.4722-3.687c-.0195-.1528-.2925-.2314-.6592-.25l.5161,4.0279c.2544.02.44.0761.4722.18C134.9639,220.5785,134.9707,220.641,134.9717,220.6327Z"/><path class="cls-35" d="M132.6026,216.4315c-.4991.11-.8936.2925-.8648.5171l.45,3.47a.72.72,0,0,0,.2207.4434c-.0039-.03-.0068-.0645-.0117-.0967-.0039-.0244-.0063-.0449-.0078-.0615-.0083-.1.313-.2046.7251-.2764Z"/><path class="cls-36" d="M131.8584,216.7221a.2556.2556,0,0,0-.1206.2265l.45,3.47a.6693.6693,0,0,0,.1968.4131Z"/><circle class="cls-37" cx="134.2853" cy="217.1567" r="0.2186" transform="translate(-26.574 18.8795) rotate(-7.3201)"/><path class="cls-35" d="M135.4336,220.18h0a.406.406,0,0,1-.35.4531l-2.7314.35a.4053.4053,0,0,1-.4531-.35h0a.4064.4064,0,0,1,.35-.4536l2.7314-.35A.406.406,0,0,1,135.4336,220.18Z"/><path class="cls-38" d="M135.4336,220.18h0a.406.406,0,0,1-.35.4531l-.5136.0659-.0923-.8047.5029-.0644A.406.406,0,0,1,135.4336,220.18Z"/><path class="cls-39" d="M135.2422,220.1283h0a.2511.2511,0,0,1-.2168.2808l-2.25.288a.2519.2519,0,0,1-.2807-.2167h0a.2517.2517,0,0,1,.2173-.2808l2.25-.2881A.2509.2509,0,0,1,135.2422,220.1283Z"/><circle class="cls-37" cx="135.0083" cy="220.1636" r="0.2545" transform="translate(-26.8071 18.8802) rotate(-7.2791)"/><path class="cls-27" d="M137.648,241.5472c-.0113-.09.0141-.4233-.0635-.3559-.1069.0937-.23-.9785-.5332-1.377-.145-.0874-.1128,1.2764-.2314,1.544-.0918.207-.128-.23-.2076-.4995-.0234-.0786-.0449-.1534-.0639-.2075-.084-.2417-.1748-.6661-.2642-.5352a4.6887,4.6887,0,0,0-.1143.7334c-.0166.08-.2348-.4121-.2583-.3335-.102.3452.0054,1.104-.18.9019s-.2637-.5591-.4707-.5328a1.07,1.07,0,0,0-.1768.9038c.377,1.044.9878,2.7232,1.2627,3.2828.2.4077.3247.6367.457.8525.1719.2793.3614.2456.4048-.0142Z"/><path class="cls-40" d="M137.6348,241.245c-.0078-.05-.022-.0776-.05-.0537-.1069.0937-.23-.9785-.5332-1.377-.145-.0874-.1128,1.2764-.2314,1.544-.0181.0415-.0342.0566-.0489.0532v.0005c.0572.977.0239,3.3452.1157,3.4971s.2618.0258.2618.0258l.436-3.7431C137.625,241.1654,137.6314,241.2157,137.6348,241.245Z"/><path class="cls-28" d="M135.8428,241.3173a5.1749,5.1749,0,0,0-.4756-.4092.1349.1349,0,0,0-.1064-.023c-.06.0088-.1377.1993-.1836.4092a3.5853,3.5853,0,0,0-.0655.3945,32.9636,32.9636,0,0,0,1.2691,3.1963c.0322.066.1284.314.1572.3711.0537-.1328.1328-.2905.1328-.2905C136.2827,243.9677,136.0332,242.139,135.8428,241.3173Z"/><path class="cls-41" d="M137.1719,241.3417a29.6458,29.6458,0,0,0-.0186,3.5473c.0923-.1088.3638-3.4116.3638-3.4116A.3849.3849,0,0,0,137.1719,241.3417Z"/><path class="cls-46" d="M137.3633,244.2806c-.417-.1757-1.354.0367-1.2715.2007.0567.1123.419,1.0152.6729,1.8013.0439.1362.08.2686.1245.3882.0434.1162.2456.0835.2817-.0752Z"/><path class="cls-50" d="M136.6162,244.2948c-.1831.0508-.2988.1182-.2558.1748.0654.0835.2046.87.458,1.6558.0439.1362.08.269.1245.3886a.1026.1026,0,0,0,.0112.0206l.0288.0292c.0347.023.0425.0191.087.002-.01-.0352-.441-2.2251-.4429-2.27Z"/><path class="cls-50" d="M136.8032,244.3773c.0347.2823.2544,1.8531.2691,2.2168a.0917.0917,0,0,0,.0483-.0566c.001-.0054.0972-1.7339.1118-2.1211C137.2393,244.2352,136.7974,244.33,136.8032,244.3773Z"/><path class="cls-7" d="M137.11,244.4354a6.46,6.46,0,0,0-.0376,2.1587,16.1629,16.1629,0,0,0,.16-2.1777Z"/><path class="cls-35" d="M135.25,218.59h0a.4073.4073,0,0,1-.3506.4531l-2.7309.35a.4058.4058,0,0,1-.4532-.35h0a.4053.4053,0,0,1,.35-.4532l2.731-.35A.4071.4071,0,0,1,135.25,218.59Z"/><path class="cls-38" d="M135.25,218.59h0a.4073.4073,0,0,1-.3506.4531l-.5141.0655-.0918-.8047.5029-.0645A.4071.4071,0,0,1,135.25,218.59Z"/><path class="cls-34" d="M135.0591,218.538h0a.2517.2517,0,0,1-.2173.2807l-2.25.2886a.2524.2524,0,0,1-.2807-.2173h0a.251.251,0,0,1,.2168-.2807l2.25-.2881A.2519.2519,0,0,1,135.0591,218.538Z"/><circle class="cls-37" cx="134.8063" cy="218.5849" r="0.2545" transform="translate(-26.612 18.8445) rotate(-7.28)"/><path class="cls-35" d="M135.042,217.202h0a.4071.4071,0,0,1-.3506.4536l-2.7314.35a.4062.4062,0,0,1-.4526-.3506h0a.4055.4055,0,0,1,.35-.4527l2.7315-.35A.4063.4063,0,0,1,135.042,217.202Z"/><path class="cls-38" d="M135.042,217.202h0a.4071.4071,0,0,1-.3506.4536l-.5136.0655-.0918-.8047.5029-.0645A.4063.4063,0,0,1,135.042,217.202Z"/><path class="cls-34" d="M134.85,217.15h0a.2506.2506,0,0,1-.2168.2807l-2.25.2881a.2509.2509,0,0,1-.2807-.2168h0a.2515.2515,0,0,1,.2168-.2807l2.25-.2881A.2513.2513,0,0,1,134.85,217.15Z"/><circle class="cls-37" cx="134.6004" cy="217.1884" r="0.2543" transform="translate(-26.4614 18.8272) rotate(-7.2871)"/><path class="cls-51" d="M139.646,227.6268c4.0493,0,7.333.711,7.333,1.5874h.1509l-2.4,19.125c0,.876-2.2422,1.587-5.0078,1.587s-5.0073-.711-5.0073-1.587l-2.39-19.04a.3646.3646,0,0,1-.0107-.0855C132.314,228.3378,135.5977,227.6268,139.646,227.6268Z"/><path class="cls-6" d="M143.8262,209.0355a8.2656,8.2656,0,0,1,2.0718.4224c.0381.1919-.0576.2109-.0576.2109a22.177,22.177,0,0,1-2.4419-.4038c.0131-.0918.0454-.3257.0454-.3257Z"/><path class="cls-6" d="M143.4424,212.3007a8.2957,8.2957,0,0,1,2.0723.4223c.0381.1919-.0576.211-.0576.211a22.2053,22.2053,0,0,1-2.4424-.4038c.0132-.0914.0454-.3257.0454-.3257Z"/><path class="cls-6" d="M143.0376,215.475a8.2668,8.2668,0,0,1,2.0718.4228c.0386.1919-.0576.211-.0576.211a22.08,22.08,0,0,1-2.4419-.4043c.0132-.0913.0454-.3252.0454-.3252Z"/><path class="cls-6" d="M142.8062,218.038a8.2713,8.2713,0,0,1,2.0718.4228c.0385.1924-.0577.211-.0577.211a22.1731,22.1731,0,0,1-2.4419-.4039l.045-.3256Z"/><path class="cls-6" d="M142.3394,221.3031a8.2736,8.2736,0,0,1,2.0722.4229c.0381.1919-.0576.2114-.0576.2114a22.1784,22.1784,0,0,1-2.4419-.4043c.0127-.0913.045-.3257.045-.3257Z"/><path class="cls-6" d="M142.0176,224.4779a8.2716,8.2716,0,0,1,2.0718.4229c.0386.1914-.0576.2109-.0576.2109a22.08,22.08,0,0,1-2.4419-.4043c.0127-.0913.0449-.3252.0449-.3252Z"/><path class="cls-6" d="M143.752,210.61s.7886.0772.8266.2691-.0576.2109-.0576.2109a5.43,5.43,0,0,1-1.1963-.25l.045-.3257Z"/><path class="cls-6" d="M143.3042,213.849s.7881.0772.8267.269-.0576.2115-.0576.2115a5.4087,5.4087,0,0,1-1.1968-.251l.0454-.3252Z"/><path class="cls-6" d="M142.9063,216.8451s.7886.0767.8271.269-.0576.211-.0576.211a5.4076,5.4076,0,0,1-1.1968-.25c.0127-.0913.045-.3252.045-.3252Z"/><path class="cls-6" d="M142.6314,219.5761s.7881.0771.8271.269-.0576.2114-.0576.2114a5.4362,5.4362,0,0,1-1.1968-.25c.0122-.0918.045-.3256.045-.3256Z"/><path class="cls-6" d="M142.1651,222.88s.7881.0766.8271.269-.0576.2109-.0576.2109a5.4073,5.4073,0,0,1-1.1968-.25c.0122-.0914.0449-.3252.0449-.3252Z"/><path class="cls-6" d="M141.8965,226.1449s.7886.0767.8267.269-.0576.211-.0576.211a5.4134,5.4134,0,0,1-1.1968-.2505l.0454-.3252Z"/><path class="cls-18" d="M39.5742,359.8392V254.4457c0-.084.25-.1533.5552-.1533H50.127c.3056,0,.5552.0693.5552.1533V359.8392c0,.084-.25.1534-.5552.1534H40.1294C39.8238,359.9926,39.5742,359.9232,39.5742,359.8392Z"/><path class="cls-18" d="M192.0674,361.7387v-107.29c0-.0859.25-.1562.5557-.1562h9.997c.3057,0,.5557.07.5557.1562v107.29c0,.0849-.25.1552-.5557.1552h-9.997C192.3174,361.8939,192.0674,361.8236,192.0674,361.7387Z"/><path class="cls-17" d="M26.4947,248.934H216.2881c3.4761,0,3.4741,7.9765,0,7.9765H26.4947C23.0205,256.9105,23.0186,248.934,26.4947,248.934Z"/><path class="cls-17" d="M139.543,355.4242a9.0205,9.0205,0,0,0-1.6963,2.99c-.3569,1.4375-.646,3.84-.646,3.84s13.4443,7.55,14.3613,7.2441,3.0518,1.0137,3.1538-1.6367-9.5014-11.001-9.5014-11.001S140.6255,359.0179,139.543,355.4242Z"/><path class="cls-52" d="M203.6958,211.89a7.3943,7.3943,0,1,1-3.0566.0874v-13.271h3.0566Z"/><path class="cls-21" d="M209.56,219.5619a7.394,7.394,0,0,1-14.7583-.0078c.8491-.6362,1.6035-1.3535,2.83-1.24,2.0678.1914,1.6123,1.2828,3.395,1.4742s2.3076-1.461,4.2812-1.43C207.2437,218.39,207.4663,219.7645,209.56,219.5619Z"/><path class="cls-51" d="M204.4888,199.788v11.3213a8.28,8.28,0,1,1-4.3315.0688v-11.39h-1.4581v-1.273h7.1192v1.273Zm-2.1255,12.1191a7.1291,7.1291,0,1,0,7.1294,7.1289,7.13,7.13,0,0,0-7.1294-7.1289Zm-1.37-11.9331v10.9019h2.5107V199.974Z"/><path class="cls-7" d="M201.4673,209.9335h0a.4757.4757,0,0,0,.4746-.4741v-8.09a.4758.4758,0,0,0-.4746-.4746h0a.4757.4757,0,0,0-.4741.4746v8.09A.4756.4756,0,0,0,201.4673,209.9335Z"/><circle class="cls-53" cx="199.1733" cy="214.6121" r="1.3049"/><rect class="cls-4" x="208.3535" y="247.412" width="2.2134" height="1.9282"/><rect class="cls-4" x="194.064" y="247.412" width="2.2129" height="1.9282"/><path class="cls-54" d="M193.1362,242.1005H211.71a1.378,1.378,0,0,1,1.378,1.378v2.7553a1.3779,1.3779,0,0,1-1.3779,1.3779H193.1357a1.3774,1.3774,0,0,1-1.3774-1.3774v-2.7559A1.3779,1.3779,0,0,1,193.1362,242.1005Z"/><path class="cls-6" d="M211.711,247.6117H193.1363a1.382,1.382,0,0,1-1.378-1.3779v-1.628h21.33v1.628A1.3816,1.3816,0,0,1,211.711,247.6117Z"/><path class="cls-52" d="M202.1245,243.7123c3.0826,0,5.5967-.62,5.5967-1.3794s-2.5141-1.3794-5.5967-1.3794-5.5966.62-5.5966,1.3794S199.0425,243.7123,202.1245,243.7123Z"/><path class="cls-52" d="M207.7207,242.3334H196.6065v-3.7442c0-2.8486,11.1142-2.8486,11.1142,0Z"/><path class="cls-6" d="M195.0088,238.746c-.6538,0-.6538,2.5508,0,2.5508C196.4473,241.2968,196.4473,238.746,195.0088,238.746Z"/><rect class="cls-4" x="195.7735" y="239.3427" width="0.833" height="1.2675"/><ellipse class="cls-53" cx="202.1674" cy="237.9868" rx="4.2258" ry="1.0231"/><rect class="cls-4" x="201.7491" y="235.2592" width="0.8295" height="2.208"/><path class="cls-55" d="M202.2046,228.1664a5.7084,5.7084,0,0,0-1.7886,4.3159c-.0551,2.5977.523,4.1079,1.751,4.1279C204.9844,236.6488,204.24,230.2118,202.2046,228.1664Z"/><path class="cls-7" d="M202.2183,232.2777a2.6686,2.6686,0,0,0-1.04,2.1123c-.0356,1.27.2969,2.0093,1.0074,2.0181C203.8145,236.4252,203.3926,233.2772,202.2183,232.2777Z"/><path class="cls-52" d="M188.12,249.19h1.914V195.3353a.9989.9989,0,0,0-.957-1.0312h0a.9989.9989,0,0,0-.957,1.0312Z"/><path class="cls-52" d="M186.4,201.7015h17.7432a.6773.6773,0,0,1,.7143.628h0a.6772.6772,0,0,1-.7143.6279H186.4a.6773.6773,0,0,1-.7143-.6279h0A.6774.6774,0,0,1,186.4,201.7015Z"/><path class="cls-4" d="M187.627,199.12h3.0361a.38.38,0,0,1,.38.38v6.3252a.3794.3794,0,0,1-.3794.3794h-3.0361a.38.38,0,0,1-.38-.38v-6.3252A.3794.3794,0,0,1,187.627,199.12Z"/><circle class="cls-56" cx="189.2431" cy="202.33" r="1.5277" transform="translate(-65.5645 93.5943) rotate(-23.8045)"/><rect class="cls-4" x="199.0479" y="199.7113" width="1.167" height="5.2222"/><rect class="cls-4" x="204.354" y="199.7889" width="1.0952" height="5.3067"/><rect class="cls-4" x="187.5449" y="238.1127" width="3.2007" height="10.9052"/></g></g></svg>