<svg xmlns="http://www.w3.org/2000/svg" viewBox="0 0 253.4784 378.8162"><defs><style>.cls-1,.cls-2{fill:#fff3a7;}.cls-10,.cls-11,.cls-12,.cls-15,.cls-16,.cls-17,.cls-18,.cls-19,.cls-2,.cls-20,.cls-21,.cls-22,.cls-23,.cls-24,.cls-25,.cls-3,.cls-5,.cls-7,.cls-8,.cls-9{fill-rule:evenodd;}.cls-3{fill:#ffe589;}.cls-4,.cls-7{fill:#141317;}.cls-13,.cls-5{fill:#e5e5e5;}.cls-10,.cls-6{fill:#08080a;}.cls-8{fill:#21242d;}.cls-14,.cls-9{fill:#fff;}.cls-11{fill:#ccc;}.cls-12{fill:#b3b3b3;}.cls-15{fill:#f8cbb0;}.cls-16{fill:#390a0a;}.cls-17{fill:#1c1621;}.cls-18{fill:#430f13;}.cls-19{fill:#a3bdc3;}.cls-20{fill:#980608;}.cls-21{fill:#ed3543;}.cls-22{fill:#963940;}.cls-23{fill:#e1a27e;}.cls-24,.cls-26{fill:#f2b6aa;}.cls-25{fill:#f3d8c8;}</style></defs><title>Ресурс 3</title><g id="Слой_2" data-name="Слой 2"><g id="Слой_1-2" data-name="Слой 1"><path class="cls-1" d="M74.38,31.2a.7852.7852,0,1,1-.5039-1.4873l3.5732-1.2017.835-.2808.1425.6768a.7932.7932,0,0,1,.1006.4731l.7852,3.7168a.7822.7822,0,1,1-1.53.3247L77.32,31.2361,61.3475,53.449C70.08,59.05,78.7158,63.9011,82.0682,65.7522l-.2041-1.0615a.7845.7845,0,1,1,1.54-.2993l.5156,2.6845.0029.0157.0039.02.1016.5273-.4795.28-2.2793,1.3291a.7845.7845,0,1,1-.791-1.355l1.08-.63c-3.1748-1.7486-12.084-6.7383-21.1221-12.5459L46.3838,74.2605a.7849.7849,0,0,1-1.2735-.918l14.0069-19.479c-8.6006-5.5971-17.0694-11.8276-20.57-16.6025a.7846.7846,0,0,1,1.2666-.9263c3.4013,4.64,11.7285,10.75,20.2138,16.2627L75.743,30.741Z"/><path class="cls-1" d="M60.035,36.5046c-.8086,1.7295-1.4746,3.7242-2.3476,5.6641-1.5176,3.3711-3.07,6.8213-3.2666,9.7188a8.38,8.38,0,0,0,.53,3.9751A4.0716,4.0716,0,0,0,56.5936,57.75a5.2275,5.2275,0,0,0,2.3428.6792,9.0042,9.0042,0,0,0,4.1162-.7657c1.4776-.6591,3.8887-3.2754,6.3457-5.9438,2.1426-2.3257,4.0244-4.3589,5.6309-5.8291,2.1855-1.9995,3.3135-.8179,1.3379.916-1.543,1.353-3.4268,3.3838-5.8125,5.9741-2.5674,2.7866-5.085,5.52-6.8643,6.313a10.6324,10.6324,0,0,1-4.8623.9,6.79,6.79,0,0,1-3.0449-.8979A5.5992,5.5992,0,0,1,53.5214,56.5a9.8916,9.8916,0,0,1-.6651-4.7217c.2149-3.1812,1.8262-6.7613,3.4014-10.26a59.6581,59.6581,0,0,0,2.4307-5.99C59.5975,32.6853,61.0908,34.2488,60.035,36.5046Z"/><path class="cls-1" d="M27.1571,130.4685l-.0322-.0215a2.8488,2.8488,0,0,1-.61.1,3.1892,3.1892,0,0,1-.7236-.0439,3.9115,3.9115,0,0,1-.7783-.2183,3.75,3.75,0,0,1-.7764-.4292,3.4515,3.4515,0,0,1-.8379-.8261,2.4685,2.4685,0,0,1-.3916-2.0416,3.1927,3.1927,0,0,1,.5147-1.0869,2.7523,2.7523,0,0,1,.8672-.813,2.4346,2.4346,0,0,1,1.039-.3305,2.9544,2.9544,0,0,1,1.1475.1386,4.1445,4.1445,0,0,1,1.1748.6021,6.8146,6.8146,0,0,1,.957.8257,6.5734,6.5734,0,0,1,.6777.8179l.0313.0219.3516-.4936a4.3072,4.3072,0,0,0,.33-.5406,1.6707,1.6707,0,0,0,.1543-.49,1.8461,1.8461,0,0,0-.1992-1.0337,2.9221,2.9221,0,0,0-.9834-1.0571,5.9785,5.9785,0,0,0-1.0869-.6187,7.8968,7.8968,0,0,0-1.1455-.3925l.6934-.9717a3.3961,3.3961,0,0,1,.54.1323,5.7864,5.7864,0,0,1,.6094.229,5.9833,5.9833,0,0,1,.6308.32,7.1457,7.1457,0,0,1,.62.395,4.4092,4.4092,0,0,1,1.49,1.6348,2.7931,2.7931,0,0,1,.2646,1.707,2.53,2.53,0,0,1-.2158.6431,4.4272,4.4272,0,0,1-.4014.6665l-3.3711,4.7422-.9716-.6909.4316-.8765Zm1.5986-2.3769c-.1728-.2124-.3837-.45-.64-.7144a7.4187,7.4187,0,0,0-.9092-.7827,2.3645,2.3645,0,0,0-1.3848-.51,1.3909,1.3909,0,0,0-1.1025.6665,1.8673,1.8673,0,0,0-.3076.6534,1.3881,1.3881,0,0,0,0,.6113,1.4538,1.4538,0,0,0,.2627.5474,2.1639,2.1639,0,0,0,.4785.4584,2.7215,2.7215,0,0,0,.7734.3877,3.5637,3.5637,0,0,0,.7559.147,3.6664,3.6664,0,0,0,.64.0059c.1875-.0161.3282-.0327.4219-.0489Z"/><polygon class="cls-1" points="35.414 131.005 39.29 129.642 40.57 130.551 35.474 132.221 35.612 137.726 34.358 136.833 34.3 132.512 34.268 132.49 30.197 133.873 28.942 132.979 34.209 131.274 34.092 125.944 35.372 126.853 35.383 130.983 35.414 131.005"/><polygon class="cls-1" points="43.619 136.892 46.16 138.7 48.093 135.987 49.14 136.73 47.207 139.448 49.751 141.256 49.048 142.243 46.507 140.435 44.574 143.149 43.526 142.405 45.459 139.688 42.915 137.88 43.619 136.892"/><path class="cls-1" d="M56.2938,147.1848a4.8734,4.8734,0,0,0,.7764-1.5112,2.6626,2.6626,0,0,0,.0752-1.1846,2.0792,2.0792,0,0,0-.3711-.8789,2.7265,2.7265,0,0,0-.6231-.6113A2.891,2.891,0,0,0,54.98,142.5a3.7586,3.7586,0,0,0-1.2568-.0127l-2.6465,3.7168a3.7049,3.7049,0,0,0,.0528.5048,2.7592,2.7592,0,0,0,.1787.5977,3.2294,3.2294,0,0,0,.3408.6157,2.3446,2.3446,0,0,0,.56.5518,2.4541,2.4541,0,0,0,1.0557.4433,2.26,2.26,0,0,0,1.0654-.1025,3.2582,3.2582,0,0,0,1.0244-.5972,5.5861,5.5861,0,0,0,.9385-1.0327Zm1.2735.7744a6.0863,6.0863,0,0,1-1.4912,1.5274,4.4045,4.4045,0,0,1-1.5665.6968,3.5077,3.5077,0,0,1-1.5107-.0113,3.8728,3.8728,0,0,1-1.3418-.605,3.184,3.184,0,0,1-.7207-.6889,2.98,2.98,0,0,1-.3916-.6968,2.4831,2.4831,0,0,1-.16-.6011,2.1958,2.1958,0,0,1-.0175-.4072l-.0244-.0156-.8086.6147-.875-.622L56.36,136.3191l1.16.8247-3.1221,4.3936.0225.0156a3.2963,3.2963,0,0,1,1.3349.0029,3.515,3.515,0,0,1,1.3194.6016,4.1216,4.1216,0,0,1,.6006.5268,3.5821,3.5821,0,0,1,.5244.7217,3.8434,3.8434,0,0,1,.3457.8975,3.3894,3.3894,0,0,1,.0771,1.0654,4.5631,4.5631,0,0,1-.2949,1.22A6.3051,6.3051,0,0,1,57.5673,147.9592Z"/><polygon class="cls-1" points="62.261 150.313 66.138 148.95 67.417 149.859 62.32 151.528 62.46 157.034 61.205 156.14 61.146 151.819 61.115 151.798 57.045 153.18 55.79 152.287 61.056 150.582 60.939 145.251 62.219 146.16 62.229 150.291 62.261 150.313"/><polygon class="cls-1" points="66.568 153.397 69.109 155.205 71.042 152.491 72.09 153.235 70.156 155.952 72.7 157.761 71.997 158.748 69.456 156.94 67.523 159.654 66.476 158.909 68.408 156.192 65.864 154.384 66.568 153.397"/><path class="cls-1" d="M79.7694,158.4817a5.2672,5.2672,0,0,1,.9131.81,3.546,3.546,0,0,1,.59.8779l-.6845.9624a7.995,7.995,0,0,0-.6778-.8838,4.4578,4.4578,0,0,0-.7431-.667,3.3119,3.3119,0,0,0-.9619-.4683,2.457,2.457,0,0,0-1.0938-.0766,2.889,2.889,0,0,0-1.1543.4761,4.5988,4.5988,0,0,0-1.15,1.1806,4.3493,4.3493,0,0,0-.6025,1.1714,2.92,2.92,0,0,0-.1416,1.167,2.49,2.49,0,0,0,.3662,1.0913,3.1743,3.1743,0,0,0,.9131.9487,5.3237,5.3237,0,0,0,.9424.5313,6.2736,6.2736,0,0,0,1.0488.3462l-.6875.9624a2.5409,2.5409,0,0,1-.4395-.086,4.1322,4.1322,0,0,1-.5459-.1914,6.3738,6.3738,0,0,1-.5879-.2822,5.233,5.233,0,0,1-.5751-.3608,5.0174,5.0174,0,0,1-1.2032-1.1822,3.7218,3.7218,0,0,1-.6465-1.46,3.8612,3.8612,0,0,1,.0547-1.6738,5.3774,5.3774,0,0,1,.8809-1.8282,6.1288,6.1288,0,0,1,1.0449-1.1586,4.6818,4.6818,0,0,1,1.1025-.7041,3.6891,3.6891,0,0,1,1.1114-.3028,4.1953,4.1953,0,0,1,1.0752.0264,4.0212,4.0212,0,0,1,.9912.29A4.6332,4.6332,0,0,1,79.7694,158.4817Z"/><path class="cls-1" d="M81.3651,163.4519l.7-.9878,6.1358,4.3613-.7041.9874-6.1319-4.3609Zm-1.9482,2.7354L80.12,165.2l6.1318,4.3642-.7031.9873Z"/><path class="cls-1" d="M93.4364,173.9583a5.2026,5.2026,0,0,0,.6738-1.26,3.1812,3.1812,0,0,0,.2071-1.16,2.2193,2.2193,0,0,0-.2549-1.002,2.2983,2.2983,0,0,0-2.7324-1.1245,3.1772,3.1772,0,0,0-1.0284.5752,5.3885,5.3885,0,0,0-.9668,1.0552,5.2478,5.2478,0,0,0-.667,1.2534,3.0976,3.0976,0,0,0-.2041,1.1543,2.2476,2.2476,0,0,0,.2618,1.0049,2.4485,2.4485,0,0,0,1.7011,1.21,2.2516,2.2516,0,0,0,1.0274-.0864,3.1064,3.1064,0,0,0,1.0215-.5752,5.1668,5.1668,0,0,0,.9609-1.0449Zm1.2109.8618a5.8666,5.8666,0,0,1-1.2724,1.3193,4.2971,4.2971,0,0,1-1.4824.7315,3.6331,3.6331,0,0,1-1.5791.0576,3.8867,3.8867,0,0,1-1.5733-.6914,4.047,4.047,0,0,1-1.2-1.2818,3.5771,3.5771,0,0,1-.4678-1.5151,4.2609,4.2609,0,0,1,.2139-1.63,6.0849,6.0849,0,0,1,.8389-1.6308,5.9131,5.9131,0,0,1,1.2783-1.3257,4.2912,4.2912,0,0,1,1.4854-.7339,3.56,3.56,0,0,1,1.5849-.061,3.9287,3.9287,0,0,1,1.5772.6943,4.0181,4.0181,0,0,1,1.1933,1.2759,3.5732,3.5732,0,0,1,.4649,1.518,4.278,4.278,0,0,1-.2178,1.6368A6.141,6.141,0,0,1,94.6473,174.82Z"/><path class="cls-1" d="M43.1161,130.81c.2988.1895.5625.3638.792.5288l1.167.8282-.38.5346-2.89-2.0542.2735-.3838c.4394-.0088.8428-.0171,1.2158-.0278a9.1217,9.1217,0,0,0,1.0029-.0835,3.1964,3.1964,0,0,0,.7637-.1977,1.1163,1.1163,0,0,0,.49-.3755.7453.7453,0,0,0,.1465-.6465,1.1424,1.1424,0,0,0-.4814-.6021,2.61,2.61,0,0,0-.6289-.3169,5.3925,5.3925,0,0,0-.7188-.1845l.3526-.4937a2.8022,2.8022,0,0,1,.6777.1592,2.9436,2.9436,0,0,1,.75.395,2.1961,2.1961,0,0,1,.4883.4614,1.5388,1.5388,0,0,1,.2656.5191,1.1539,1.1539,0,0,1,.0215.5513,1.3972,1.3972,0,0,1-.2481.5556,1.49,1.49,0,0,1-.52.4605,2.484,2.484,0,0,1-.6982.2441,5.224,5.224,0,0,1-.8486.0982c-.3106.0112-.6358.0161-.9815.0141Z"/><path class="cls-1" d="M75.6161,86.5628a17.6077,17.6077,0,0,1,.5225,24.8916c-5.6436,5.8857-12.4854,6.6132-18.253,4.3618-10.4844-4.0928-17.4209-18.0313-7.1621-28.731a17.6079,17.6079,0,0,1,24.8926-.5224Zm-.2813,24.8227c.44-.46.7891-1.6992,1.1651-2.1943A16.4108,16.4108,0,0,0,74.786,87.427c-6.539-6.27-16.2207-6.4868-22.4912.0527s-6.7588,17.3628-.2187,23.6329S69.0643,117.9246,75.3348,111.3855Z"/><path class="cls-2" d="M96.5262,124.4631c-.8525-3.7685-8.9355-22.7016-1.6845-19.19l9.1924,4.4517c3.9306,1.9038,3.3525,2.0669,5.9287-1.4981,1.4238-1.9707,3.1709-4.3887,4.6279-6.29,2.2236-2.9028,3.6162-4.6436,4.4014-1.1685l3.8945,17.2315-3.5693,1.0478c-2.44.7608-2.2745-1.4311-.5772-2.6318.9893-.7,1.49-1.2524,1.3692-1.9619L118.1386,102.82l-4.8946,6.2676c-4.1836,5.3559-3.4443,4.893-9.5381,1.8862l-8.3095-4.1,2.8437,12.58c.1621.7192.0469,2.0747.9463,2.2578,3.3916.6909,7.3779,2.0513-.2666,2.585Z"/><path class="cls-1" d="M9.4384,83.7708A.6908.6908,0,1,1,8.06,83.6853c.1611-2.5381,1.3544-3.4394,3.1308-3.3271,2.8506.1821,7.27,3.5019,10.8574,6.1987.3555.2666,6.1758,4.6377,6.9727,3.8071a.6858.6858,0,0,1,.32-.19.6927.6927,0,0,1,.6582.1694c.0059.0054,2.0625,1.9776-3.3926.7988-1.0635-.23-3.0537-1.7246-5.3926-3.4814-3.4384-2.585-7.6757-5.7676-10.1093-5.9229-.9346-.059-1.5674.4937-1.666,2.0328Zm11.0107,8.05L11.31,107.7434a.6907.6907,0,1,0,1.1963.6909l9.1387-15.9228a.6906.6906,0,1,0-1.1963-.69Zm-5.1709-3.8277c-.0225.0386-7.8975,13.5855-10.5342,13.5166-2.4961-.0644-3.3769-4.5947-3.38-4.6074a.69.69,0,1,0-1.3486.2881c.0029.0156,1.0723,5.6084,4.6934,5.7016,3.48.0909,11.7353-14.1523,11.7588-14.1928a.6917.6917,0,1,0-1.19-.7061Z"/><path class="cls-2" d="M175.22,94.6892s-48.7207,3.98-50.5176,4.8433-1.4033,2.3486-.4316,3.81l26.57,39.9761c1.7686,2.6616,3.1973,1.7886,1.2949-1.0981L125.73,102.158s.2188-1.0816,1.1622-1.1826c8.0771-.8653,47.3-4.1265,48.3828-5.2559C176.4843,94.4578,175.22,94.6892,175.22,94.6892Z"/><path class="cls-2" d="M143.1376,89.7219c1.4853,4.0059,3.4756,12.9131-2.8936,23.0479s-12.3877,10.395-12.125,11.1308-.2549,1.0572,1.083.5542,9.2422-4.3169,13.0352-11.976,4.0273-11.2061,4.2871-14.5064c.1953-2.4746-.58-5.5493-1.9883-7.0869C144.0682,90.3743,143.8378,89.7073,143.1376,89.7219Z"/><path class="cls-1" d="M39.6669,92.2605a3.3779,3.3779,0,0,0,.625-2.5312,2.401,2.401,0,0,0-1.835-1.5049,2.0124,2.0124,0,0,0-1.8037.5449,4.0576,4.0576,0,0,0-1.0752,2.2163c-.13.7578,1.0342,1.0269,1.1641.269.041-.1894.0849-.3784.14-.5595a.2123.2123,0,0,0,.0352-.0962l.0058-.0166a.3039.3039,0,0,0,.0176-.0313c.0313-.0957.08-.1855.1123-.2846a4.206,4.206,0,0,1,.3008-.4932.8406.8406,0,0,1,.7666-.4019,1.0849,1.0849,0,0,1,1.04,1.0093,3.29,3.29,0,0,1-.8818,1.7823,8.0808,8.0808,0,0,1-1.9111,1.6591c-1.2168.8145-2.4121,1.6241-3.6826,2.356a.5989.5989,0,0,0,.0322,1.0366c.9453.499,1.9062,1.0068,2.8535,1.5064a.6035.6035,0,0,0,.5625-1.066c-.6318-.333-1.2774-.6743-1.9082-1.01,1.1533-.6963,2.28-1.4463,3.3975-2.22A7.6427,7.6427,0,0,0,39.6669,92.2605Z"/><path class="cls-1" d="M129.9589,206.0051q-2.2779.8541-4.5547,1.7085a1.3273,1.3273,0,0,0-.542,1.7788,1.3621,1.3621,0,0,0,1.8105.5606c.24-.1094.4932-.169.7334-.2788q-4.4926,7.2495-8.9853,14.498a1.3216,1.3216,0,0,0,2.2451,1.3911q5.5063-8.8857,11.0146-17.771c.7725-1.247-.5644-2.2919-1.7216-1.8872ZM123.9882,228.24c-.8907.88-2.3194-.5742-1.3819-1.46.2364-.2426.4532-.4531.6895-.6948,4.6836-4.563,9.3867-9.1572,14.039-13.7392.9571-.9175,2.3194.5747,1.3819,1.4609-.2364.2417-.4531.4526-.69.6948-4.6836,4.5625-9.3554,9.1758-14.039,13.7383Zm22.48-4.4507a16.46,16.46,0,0,1-4.7305,4.3613c-2.5254,1.4986-5.0635,2.9468-7.6553,4.2749,1.31.8111,2.6494,1.6416,3.959,2.4532a1.3039,1.3039,0,0,1-1.3711,2.2143c-1.9648-1.2182-3.96-2.4546-5.9238-3.6718a1.2879,1.2879,0,0,1,.0888-2.232c2.8448-1.3872,5.5411-2.9526,8.2881-4.53a17.3291,17.3291,0,0,0,4.3692-3.29c.8945-.9561,2.0595-2.3486,2.167-3.7056a2.3471,2.3471,0,0,0-2.0918-2.333,1.8294,1.8294,0,0,0-1.7159.749,10.75,10.75,0,0,0-.72,1.0215c-.0849.2061-.2012.3936-.2851.6l-.0586.0928a.4613.4613,0,0,1-.084.2065c-.15.3819-.27.7828-.3887,1.1836-.3945,1.6114-2.8623.8584-2.4678-.7529a8.773,8.773,0,0,1,2.6465-4.6172,4.35,4.35,0,0,1,3.97-.9053c1.6036.4766,3.3965,1.76,3.73,3.5206A7.2717,7.2717,0,0,1,146.4678,223.7893Z"/><path class="cls-1" d="M199.1913,142.4714a26.5089,26.5089,0,0,1,.7871,37.4766c-8.4961,8.8613-18.7969,9.957-27.48,6.5669-15.7861-6.1621-26.2295-27.1479-10.7832-43.2563a26.5089,26.5089,0,0,1,37.4766-.7872Zm-.4238,37.3726c.664-.6924,1.1884-2.5581,1.7558-3.3032a24.71,24.71,0,0,0-2.581-32.7676c-9.8448-9.44-24.4219-9.7666-33.8623.0791s-10.1758,26.1406-.33,35.5811S189.328,189.69,198.7675,179.844Z"/><path class="cls-1" d="M219.6083,170.9192a23.4,23.4,0,0,1,.6953,33.082c-7.5,7.8218-16.5928,8.7891-24.2578,5.7969-13.9346-5.44-23.1533-23.9644-9.5186-38.1836a23.3994,23.3994,0,0,1,33.0811-.6953Zm-.3731,32.99c.586-.6108,1.0479-2.2583,1.5489-2.916a21.8111,21.8111,0,0,0-2.2774-28.9248c-8.6914-8.3335-21.5586-8.6211-29.8916.07s-8.9824,23.0752-.291,31.4082S210.9012,212.6,219.2352,203.9094Z"/><path class="cls-1" d="M183.6444,169.7234a22.9925,22.9925,0,0,1,11.7783,30.3032c-4.29,9.7451-12.3574,13.6992-20.44,13.5181-14.6943-.3306-29.44-14.3267-21.6416-32.0425a22.9923,22.9923,0,0,1,30.3037-11.7788Zm10.7608,30.5781c.3349-.7612.208-2.437.4492-3.2129a21.4322,21.4322,0,0,0-11.8408-25.9336c-10.8282-4.7666-22.8028-.7-27.5694,10.128s-.5224,24.3242,10.3057,29.0908S189.64,211.13,194.4052,200.3015Z"/><path class="cls-1" d="M197.953,163.9255a.2517.2517,0,0,1,.2129.2852.2989.2989,0,0,1-.0147.0542,3.535,3.535,0,0,0,.2618.3975,27.72,27.72,0,0,0,3.2295,3.497,18.6805,18.6805,0,0,1,3.1318,3.9077.2512.2512,0,0,1-.4346.252,18.1726,18.1726,0,0,0-3.0381-3.79,28.3143,28.3143,0,0,1-3.2949-3.5679,3.9914,3.9914,0,0,1-.3086-.4741c-.1328-.2554-.1142-.44.0723-.5337A.3021.3021,0,0,1,197.953,163.9255Z"/><path class="cls-1" d="M194.7333,166.1741a.2512.2512,0,0,1,.331.3779c-.0195.0327.1309.0581.25.2363a11.8326,11.8326,0,0,0,.876,1.1021,34.85,34.85,0,0,0,3.1582,3.1294,19.6067,19.6067,0,0,1,3.085,3.4414c.1074.1562.1865.2817.2353.3677.1709.3017.1153.4809-.1455.5048l-.001-.0009a.2722.2722,0,0,1-.1806-.0508.2521.2521,0,0,1-.1074-.1978l-.004-.0068c-.0449-.0786-.1162-.1919-.2119-.3315a19.07,19.07,0,0,0-3-3.3467,35.4272,35.4272,0,0,1-3.207-3.1758,12.099,12.099,0,0,1-.915-1.1558c-.2686-.4028-.3467-.71-.1856-.873l.0147-.0142Z"/><path class="cls-1" d="M193.663,169.3987a.2521.2521,0,0,1,.375-.3369l4.3125,4.83a.2521.2521,0,0,1-.375.337Z"/><path class="cls-1" d="M190.2391,171.5046a.2522.2522,0,0,1,.39-.32l7.6494,9.3135a.2518.2518,0,0,1-.3887.32Z"/><path class="cls-1" d="M185.4891,177.8162a.2518.2518,0,1,1,.39-.3189l3.8682,4.7515a.2521.2521,0,1,1-.3907.3188Z"/><path class="cls-1" d="M187.19,174.7493a.2516.2516,0,1,1,.41-.2915l6.4365,9.0967a.2521.2521,0,0,1-.4111.2919Z"/><path class="cls-1" d="M161.9491,171.4421a.251.251,0,1,1,.2949.4063,2.3837,2.3837,0,0,0-.1787,1.0679,9.8624,9.8624,0,0,0,.13,2.0454,5.9739,5.9739,0,0,1,.0391,1.6748,3.9019,3.9019,0,0,1-.4522,1.5864.2514.2514,0,0,1-.3516-.3594,3.8178,3.8178,0,0,0,.3028-1.2832,5.42,5.42,0,0,0-.0342-1.5312,10.3835,10.3835,0,0,1-.1357-2.1558A2.2358,2.2358,0,0,1,161.9491,171.4421Z"/><path class="cls-1" d="M166.3964,170.7888a.2515.2515,0,0,1,.5029.0078l-.1318,8.7413a.2515.2515,0,0,1-.503-.0079Z"/><path class="cls-1" d="M171.0233,169.25a.2514.2514,0,1,1,.501-.0416l1.0693,13.2842a.2513.2513,0,0,1-.5009.0415Z"/><path class="cls-1" d="M175.6718,171.01a.2511.2511,0,0,1,.5009-.0356l.8116,11.4707a.2511.2511,0,0,1-.501.0361Z"/><path class="cls-1" d="M178.2528,173.5081a.2515.2515,0,1,1,.499.063l.1983,6.0258a.2515.2515,0,1,1-.499-.0634Z"/><path class="cls-1" d="M181.06,174.7444a.2513.2513,0,1,1,.2959.4062c-.8174.5914-.4521,2.4214-.7109,3.2271-.0352.1094.0683.1352-.03.376a.2526.2526,0,0,1-.3291.1382c-.2959-.1211-.2246-.3457-.1211-.669C180.4794,177.2459,180.03,175.4905,181.06,174.7444Z"/><path class="cls-1" d="M192.54,187.3855a.2515.2515,0,1,1,.18.47l-6.2939,2.3985a.2515.2515,0,1,1-.18-.47Z"/><path class="cls-1" d="M192.4266,190.8494a.252.252,0,1,1,.1924.4658l-5.4541,2.2471a.252.252,0,0,1-.1924-.4659Z"/><path class="cls-1" d="M193.5829,194.6345a.2518.2518,0,1,1,.1641.4761l-8.6778,2.9819a.2516.2516,0,0,1-.1631-.476Z"/><path class="cls-1" d="M193.7294,197.7385a.2517.2517,0,1,1,.1758.4717l-4.3145,1.6011a.2517.2517,0,0,1-.1758-.4717Z"/><path class="cls-1" d="M192.8866,200.81a.2517.2517,0,0,1,.124.4878l-3.2207.8237a.2516.2516,0,0,1-.124-.4877Z"/><path class="cls-1" d="M184.704,180.2517a.2514.2514,0,1,1,.4658-.1894l2.92,3.6142a.2515.2515,0,1,1-.4658.19Z"/><path class="cls-1" d="M183.8485,183.635a.2515.2515,0,0,1,.3594-.352l1.3594,1.3906a.2514.2514,0,1,1-.3594.3516Z"/><path class="cls-1" d="M71.9774,23.2781c.6475-3.5742,1.3506-7.1738,1.9981-10.7481,2.6064-2.3476,5.1757-4.7124,7.7822-7.0595h0c1.1963-1.0659-.5029-2.919-1.6943-1.8467-1.7618,1.62-3.5479,3.2217-5.3086,4.8476.4111-2.3012.83-4.5483,1.2666-6.831l.0244-.0313A1.3192,1.3192,0,0,0,75.21.0447,1.2512,1.2512,0,0,0,73.6444.88q-.9829,5.1694-1.958,10.3326c-2.5762,2.3715-5.1826,4.7124-7.7764,7.1147h0c-1.19,1.0718.5274,2.8877,1.67,1.8345,1.7861-1.6143,3.5966-3.2466,5.3584-4.8662-.4424,2.4116-.9082,4.811-1.3623,7.2534h0a1.3183,1.3183,0,0,0,.8359,1.5649A1.25,1.25,0,0,0,71.9774,23.2781Z"/><path class="cls-1" d="M86.6434,17.8836c-1.9326-.9957-3.6523-2.2554-5.56-3.2876A.9031.9031,0,0,0,80.22,16.18c1.89,1.0566,3.6279,2.2851,5.5615,3.2812,1.0176.5122,1.8809-1.0649.8623-1.5771Zm-1.7324,3.16c-1.9258-1.0019-3.665-2.2241-5.5547-3.2871a.9.9,0,0,0-.8633,1.5767c1.8838,1.0629,3.628,2.292,5.5547,3.2876C85.0663,23.1331,85.9354,21.5559,84.911,21.0437Z"/><path class="cls-1" d="M158.6669,106.8811a2.8377,2.8377,0,0,0-2.0469-2.9785,1.9372,1.9372,0,0,0-.5908-.1074c.2812-.2378.5664-.4517.8428-.6519.8564-.644,1.7773-1.21,2.6865-1.7641.6308-.3726.1025-1.38-.5283-1.0083a27.6522,27.6522,0,0,0-4.0723,2.8623,6.1826,6.1826,0,0,0-1.8721,2.4629l-.0156.0263a.6588.6588,0,0,0-.0693.2578,3.3374,3.3374,0,0,0-.087,1.1841,3.11,3.11,0,0,0,3.0694,2.3682,2.798,2.798,0,0,0,2.6836-2.6514Zm-1.8633,1.29a1.7324,1.7324,0,0,1-1.6182.07,1.8466,1.8466,0,0,1-1.1279-1.1074,1.6318,1.6318,0,0,1,.0332-.9165,2.6027,2.6027,0,0,1,1.041-1.1465,1.5846,1.5846,0,0,1,1.1592-.08,1.7093,1.7093,0,0,1,1.25,1.8589A2.0316,2.0316,0,0,1,156.8036,108.1707Z"/><path class="cls-1" d="M166.9149,105.4485c-.84-1.562-2.708-1.6655-4.1523-.9805a6.748,6.748,0,0,0-3.4512,4.5845c-.3545,1.6343.0186,3.4883,1.6738,4.229a3.374,3.374,0,0,0,2.7666-.2466,6.2325,6.2325,0,0,0,2.5254-2.3745c.9385-1.4927,1.5069-3.5542.6377-5.2119Zm-5.6064,6.7236a1.8214,1.8214,0,0,1-.9483-1.5376,4.4881,4.4881,0,0,1,.4785-2.5166c.6836-1.4453,2.1973-3.1035,3.9444-2.9223,1.665.1845,1.49,2.4585,1.1318,3.5654a5.2677,5.2677,0,0,1-.6054,1.2915C164.5253,111.2683,162.9159,112.81,161.3085,112.1721Z"/><path class="cls-1" d="M173.1278,105.8523a1.5207,1.5207,0,0,0-2.0752-.4888,3.3706,3.3706,0,0,0-1.7265,2.2925,1.778,1.778,0,0,0,.8378,2.1157,1.6772,1.6772,0,0,0,1.3819-.1235,3.1012,3.1012,0,0,0,1.2637-1.1875,2.6966,2.6966,0,0,0,.3183-2.6084Zm-2.8008,3.3648a.9021.9021,0,0,1-.4736-.7706,2.2221,2.2221,0,0,1,.2373-1.2568c.3418-.7251,1.0986-1.5518,1.9707-1.4624.835.0923.7481,1.229.5664,1.7837a2.5305,2.5305,0,0,1-.3027.6436C171.9345,108.7664,171.13,109.5344,170.327,109.2171Z"/><rect class="cls-1" x="213.0931" y="149.8658" width="13.9416" height="4.3117" transform="translate(-30.5342 245.5059) rotate(-55.0947)"/><rect class="cls-1" x="217.0016" y="151.4113" width="18.4703" height="4.3118" transform="translate(-29.161 251.2294) rotate(-55.0947)"/><rect class="cls-1" x="223.1371" y="157.3834" width="11.9835" height="4.3118" transform="translate(-32.8126 256.1804) rotate(-55.1001)"/><rect class="cls-1" x="227.4909" y="159.7532" width="14.5435" height="4.3115" transform="translate(-32.3454 261.8153) rotate(-55.1002)"/><rect class="cls-1" x="233.4372" y="165.2078" width="9.5357" height="4.3117" transform="translate(-35.3558 266.9464) rotate(-55.0947)"/><rect class="cls-1" x="237.1902" y="166.52" width="14.5433" height="4.3114" transform="translate(-33.7455 272.6649) rotate(-55.1001)"/><rect class="cls-1" x="243.8717" y="173.4125" width="5.9865" height="4.3122" transform="translate(-38.3669 277.5954) rotate(-55.1022)"/><rect class="cls-1" x="229.4794" y="144.4663" width="0.8473" height="46.4615" transform="translate(-39.1744 260.2985) rotate(-55.0986)"/><path class="cls-2" d="M186.8329,232.08l11.4414-.56a11.4672,11.4672,0,0,1-.3008,3.227l-11.0117-2.6011Z"/><path class="cls-2" d="M197.0565,235.0628a11.4351,11.4351,0,0,1-.9726,2.561L186.0673,232.37Z"/><path class="cls-2" d="M185.9716,231.1306,196.5,226.617a11.4634,11.4634,0,0,1,.9092,3.8725Z"/><path class="cls-2" d="M189.9423,221.8084a11.4548,11.4548,0,0,0-17.585,12.0283l11.1709-2.5376S187.7245,225.114,189.9423,221.8084Z"/><path class="cls-2" d="M184.2743,231.176l10.5586-4.4389a11.4181,11.4181,0,0,0-4.1445-5.0513C188.4706,224.9915,184.2743,231.176,184.2743,231.176Z"/><path class="cls-2" d="M183.452,232.511l2.5381,11.17a11.4548,11.4548,0,0,1-13.708-8.6323Z"/><path class="cls-2" d="M184.5565,232.2063l10.1768,5.2588a11.4557,11.4557,0,0,1-7.6641,5.917Z"/><path class="cls-3" d="M127.6991,378.8162c69.2764,0,125.7793-7.5264,125.7793-16.7559,0-9.2246-56.5029-16.7471-125.7793-16.7471S1.9188,352.8357,1.9188,362.06C1.9188,371.29,58.4228,378.8162,127.6991,378.8162Z"/><rect class="cls-4" x="93.3749" y="160.6956" width="5.8818" height="19.0278"/><path class="cls-5" d="M96.64,177.8342h0c4.3877,0,7.9776,2.1724,7.9776,4.8291v25.8633H88.661V182.6633C88.661,180.0066,92.2509,177.8342,96.64,177.8342Z"/><path class="cls-5" d="M96.3212,168.23h0c4.3886,0,7.9785-2.1748,7.9785-4.83V137.5374H88.3418V163.4C88.3418,166.0549,91.9335,168.23,96.3212,168.23Z"/><rect class="cls-4" x="40.91" y="200.7341" width="18.0694" height="12.2032"/><path class="cls-6" d="M70.4169,132.9129h53.3345a12.6821,12.6821,0,0,1,12.6821,12.6821v.001A12.6831,12.6831,0,0,1,123.75,158.2791H70.4169a12.6826,12.6826,0,0,1-12.6826-12.6826v-.001a12.6826,12.6826,0,0,1,12.6826-12.6826Z"/><path class="cls-7" d="M124.64,158.2463c-.2959.02-.59.0328-.8886.0328H70.4169A12.72,12.72,0,0,1,57.7343,145.596v-.0015a12.6505,12.6505,0,0,1,3.832-9.061c.293-.021.59-.03.8877-.03h53.334a12.72,12.72,0,0,1,12.6826,12.6831v.001A12.6442,12.6442,0,0,1,124.64,158.2463Z"/><path class="cls-8" d="M113.9618,132.9129h9.7891a12.57,12.57,0,0,1,6.6533,1.8984l-68.3789,20.27a12.7452,12.7452,0,0,1-3.9063-6.3984Z"/><path class="cls-9" d="M123.7509,135.3308H70.4159A10.2947,10.2947,0,0,0,60.1522,145.595v.001A10.2935,10.2935,0,0,0,70.4159,155.86h53.335a10.2943,10.2943,0,0,0,10.2646-10.2636v-.0015c0-3.3511-1.1064-6.1328-3.6113-8.0078a11.994,11.994,0,0,0-6.6533-2.2559Zm-53.335-4.8359h53.335a15.1455,15.1455,0,0,1,15.1,15.1v.001a15.1445,15.1445,0,0,1-15.1,15.1H70.4159a15.1445,15.1445,0,0,1-15.1-15.1v-.0015a15.1454,15.1454,0,0,1,15.1-15.1Z"/><path class="cls-10" d="M64.4823,137.2341c.4961-.7348,2.2129-1.2011,3.5449-1.6811.3008-.021.6016-.0313.9073-.0313H123.411a12.8463,12.8463,0,0,1,6.9932,2.065Z"/><rect class="cls-4" x="69.2733" y="265.5408" width="18.5205" height="97.0947"/><path class="cls-5" d="M66.8163,355.5281l5.5664-3.2031a43.6277,43.6277,0,0,1,12.0615-.0332l5.8076,3.2363c1.0069.5615,2.0957.9453,2.0957,2.0957v4.7178a2.103,2.103,0,0,1-2.0957,2.0966H66.8163a2.1026,2.1026,0,0,1-2.0967-2.0966v-4.7178C64.72,356.4705,65.8163,356.1033,66.8163,355.5281Z"/><path class="cls-11" d="M92.036,356.7029a1.44,1.44,0,0,1,.3115.9209v4.7178a2.103,2.103,0,0,1-2.0957,2.0966H66.8163a2.1026,2.1026,0,0,1-2.0967-2.0966v-4.7178a1.4288,1.4288,0,0,1,.3145-.9209Z"/><path class="cls-12" d="M92.3221,362.6677a2.1069,2.1069,0,0,1-2.07,1.7705H66.8163a2.1065,2.1065,0,0,1-2.0713-1.7705Z"/><path class="cls-7" d="M68.9159,305.3064H88.6552a4.32,4.32,0,0,1,4.3066,4.3047h0a4.3191,4.3191,0,0,1-4.3066,4.3057H68.9159a4.3183,4.3183,0,0,1-4.3057-4.3057h0A4.3181,4.3181,0,0,1,68.9159,305.3064Z"/><path class="cls-13" d="M69.6337,300.1707H87.329a1.8623,1.8623,0,0,1,1.8623,1.8623v14.9013a1.8633,1.8633,0,0,1-1.8633,1.8633H69.6338a1.8623,1.8623,0,0,1-1.8623-1.8623V302.033A1.8623,1.8623,0,0,1,69.6337,300.1707Z"/><path class="cls-11" d="M88.48,313.0173V316.83a1.717,1.717,0,0,1-.2636.917H68.746a1.7171,1.7171,0,0,1-.2637-.917v-3.8125Z"/><rect class="cls-14" x="68.3768" y="302.2976" width="20.209" height="3.5391"/><rect class="cls-4" x="105.5136" y="265.5408" width="18.373" height="97.0947"/><path class="cls-5" d="M102.9833,355.5281l5.5654-3.2031a43.6277,43.6277,0,0,1,12.0615-.0332l5.8086,3.2363c1.0069.5615,2.0967.9453,2.0967,2.0957v4.7178a2.1039,2.1039,0,0,1-2.0967,2.0966H102.9833a2.1035,2.1035,0,0,1-2.0977-2.0966v-4.7178C100.8856,356.4705,101.9833,356.1033,102.9833,355.5281Z"/><path class="cls-11" d="M128.203,356.7029a1.4467,1.4467,0,0,1,.3125.9209v4.7178a2.1039,2.1039,0,0,1-2.0967,2.0966H102.9833a2.1035,2.1035,0,0,1-2.0977-2.0966v-4.7178a1.4238,1.4238,0,0,1,.3155-.9209Z"/><path class="cls-12" d="M128.4891,362.6677a2.1061,2.1061,0,0,1-2.07,1.7705H102.9833a2.1064,2.1064,0,0,1-2.0713-1.7705Z"/><path class="cls-7" d="M105.0829,305.3064h19.7392a4.3187,4.3187,0,0,1,4.3057,4.3047h0a4.3183,4.3183,0,0,1-4.3057,4.3057H105.0829a4.3176,4.3176,0,0,1-4.3057-4.3057h0A4.3181,4.3181,0,0,1,105.0829,305.3064Z"/><path class="cls-13" d="M105.8,300.1707H123.495a1.8633,1.8633,0,0,1,1.8633,1.8633v14.9a1.8633,1.8633,0,0,1-1.8633,1.8633H105.8013a1.8633,1.8633,0,0,1-1.8633-1.8633V302.0331A1.8624,1.8624,0,0,1,105.8,300.1707Z"/><path class="cls-11" d="M124.6473,313.0173V316.83a1.717,1.717,0,0,1-.2636.917H104.911a1.7244,1.7244,0,0,1-.2617-.917v-3.8125Z"/><rect class="cls-14" x="104.5428" y="302.2976" width="20.209" height="3.5391"/><rect class="cls-4" x="32.2148" y="251.8103" width="8.4063" height="30.6465"/><path class="cls-5" d="M35.9725,188.9114h0a8.9642,8.9642,0,0,1,8.9385,8.9365v54.2642a8.9639,8.9639,0,0,1-8.9385,8.9365h0a8.9631,8.9631,0,0,1-8.9375-8.9365V197.8479A8.9637,8.9637,0,0,1,35.9725,188.9114Z"/><path class="cls-9" d="M33.85,259.031a8.9539,8.9539,0,0,1-4.8135-7.9189V199.5984a8.9652,8.9652,0,0,1,4.8135-7.9233Z"/><path class="cls-11" d="M38.997,192.3684a6.8172,6.8172,0,0,1,4.3222,6.3228v52.4717a6.8134,6.8134,0,0,1-4.3222,6.32Z"/><path class="cls-7" d="M27.1141,291.0779h3.84v9.6172a1.92,1.92,0,0,1-3.84,0Z"/><path class="cls-13" d="M27.0663,294.4129h4.0566a1.3555,1.3555,0,0,1,1.3555,1.3555v.6755a1.3552,1.3552,0,0,1-1.3552,1.3552H27.0673a1.3545,1.3545,0,0,1-1.3545-1.3545v-.6782a1.3535,1.3535,0,0,1,1.3535-1.3535Z"/><path class="cls-9" d="M27.2333,294.6648h3.7246a1.2492,1.2492,0,0,1,1.16.7988H26.0721A1.2513,1.2513,0,0,1,27.2333,294.6648Z"/><path class="cls-11" d="M32.1639,296.12a1.2314,1.2314,0,0,1-1.2285,1.1826H27.2548a1.2306,1.2306,0,0,1-1.2276-1.1826Z"/><path class="cls-7" d="M34.2158,291.1091h3.8408v9.6172a1.92,1.92,0,0,1-3.8408,0Z"/><rect class="cls-13" x="32.8163" y="294.4441" width="6.7637" height="3.3867" rx="1.3545" ry="1.3545"/><path class="cls-9" d="M34.3368,294.697H38.06a1.2447,1.2447,0,0,1,1.1592.7989h-6.043A1.2452,1.2452,0,0,1,34.3368,294.697Z"/><path class="cls-11" d="M39.2665,296.1511a1.2323,1.2323,0,0,1-1.2285,1.1836h-3.68a1.2329,1.2329,0,0,1-1.2285-1.1836Z"/><path class="cls-7" d="M41.3192,291.1433h3.84v9.6133a1.92,1.92,0,0,1-3.84,0Z"/><path class="cls-13" d="M41.2732,294.4754H45.329a1.3545,1.3545,0,0,1,1.3545,1.3545v.6762a1.3555,1.3555,0,0,1-1.3555,1.3555H41.2713a1.3535,1.3535,0,0,1-1.3535-1.3535v-.6773a1.3554,1.3554,0,0,1,1.3554-1.3554Z"/><path class="cls-9" d="M41.4393,294.7283h3.7246a1.2515,1.2515,0,0,1,1.16.7978H40.2782A1.2518,1.2518,0,0,1,41.4393,294.7283Z"/><path class="cls-11" d="M46.369,296.1834a1.2315,1.2315,0,0,1-1.2285,1.1826h-3.68a1.2329,1.2329,0,0,1-1.2285-1.1826Z"/><path class="cls-5" d="M34.8788,275.5837h2.793a9.3413,9.3413,0,0,1,9.3134,9.3135v4.5772a1.8674,1.8674,0,0,1-1.8623,1.8613H27.4276a1.8674,1.8674,0,0,1-1.8623-1.8613v-4.5772A9.3413,9.3413,0,0,1,34.8788,275.5837Z"/><path class="cls-9" d="M35.0165,276.88H37.17a7.2005,7.2005,0,0,1,7.1787,7.1788v3.5263a1.4418,1.4418,0,0,1-1.4355,1.4365H29.2743a1.4414,1.4414,0,0,1-1.4365-1.4365v-3.5263A7.2,7.2,0,0,1,35.0165,276.88Z"/><rect class="cls-4" x="135.1132" y="200.6834" width="18.0693" height="12.2021"/><rect class="cls-4" x="153.4706" y="251.8289" width="8.4082" height="30.6465"/><path class="cls-5" d="M158.119,188.9114h0a8.9632,8.9632,0,0,0-8.9365,8.9365v54.2642a8.9645,8.9645,0,0,0,8.9365,8.9384h0a8.9641,8.9641,0,0,0,8.9375-8.9384V197.8479A8.9631,8.9631,0,0,0,158.119,188.9114Z"/><path class="cls-9" d="M160.243,259.033a8.959,8.959,0,0,0,4.8135-7.92V199.5994a8.9655,8.9655,0,0,0-4.8135-7.9243Z"/><path class="cls-11" d="M155.0966,192.37a6.8156,6.8156,0,0,0-4.3243,6.3218v52.4721a6.8139,6.8139,0,0,0,4.3243,6.3194Z"/><path class="cls-7" d="M167.3544,291.0779h-3.84v9.6172a1.92,1.92,0,0,0,3.84,0Z"/><path class="cls-13" d="M163.3426,294.4129h4.0557a1.3555,1.3555,0,0,1,1.3555,1.3555v.6752a1.3555,1.3555,0,0,1-1.3555,1.3555h-4.0547a1.3545,1.3545,0,0,1-1.3545-1.3545v-.6782A1.3535,1.3535,0,0,1,163.3426,294.4129Z"/><path class="cls-9" d="M167.2343,294.6658H163.51a1.246,1.246,0,0,0-1.16.7988h6.0459A1.2483,1.2483,0,0,0,167.2343,294.6658Z"/><path class="cls-11" d="M162.3036,296.12a1.2339,1.2339,0,0,0,1.2285,1.1846h3.68A1.2339,1.2339,0,0,0,168.44,296.12Z"/><path class="cls-7" d="M160.2509,291.11H156.412v9.6162a1.92,1.92,0,0,0,3.8389,0Z"/><path class="cls-13" d="M156.2406,294.4441h4.0561a1.3555,1.3555,0,0,1,1.3555,1.3555v.6767a1.3545,1.3545,0,0,1-1.3545,1.3545h-4.0571a1.3545,1.3545,0,0,1-1.3545-1.3545v-.6777a1.3545,1.3545,0,0,1,1.3545-1.3545Z"/><path class="cls-9" d="M160.1318,294.698h-3.7246a1.2451,1.2451,0,0,0-1.16.7979h6.0449A1.2452,1.2452,0,0,0,160.1318,294.698Z"/><path class="cls-11" d="M155.2011,296.1521a1.2314,1.2314,0,0,0,1.2275,1.1836h3.6807a1.231,1.231,0,0,0,1.2285-1.1836Z"/><path class="cls-7" d="M153.1483,291.1433h-3.84v9.6143a1.92,1.92,0,0,0,3.84,0Z"/><path class="cls-13" d="M149.14,294.4754h4.0557a1.3536,1.3536,0,0,1,1.3536,1.3536v.6791a1.3535,1.3535,0,0,1-1.3535,1.3535h-4.0587a1.3525,1.3525,0,0,1-1.3525-1.3525v-.6783a1.3554,1.3554,0,0,1,1.3554-1.3554Z"/><path class="cls-9" d="M153.0292,294.7283h-3.7246a1.248,1.248,0,0,0-1.16.7978h6.0449A1.2489,1.2489,0,0,0,153.0292,294.7283Z"/><path class="cls-11" d="M148.0985,296.1853a1.231,1.231,0,0,0,1.2276,1.1807h3.6816a1.2316,1.2316,0,0,0,1.2275-1.1807Z"/><path class="cls-5" d="M159.5888,275.5847h-2.7929a9.3411,9.3411,0,0,0-9.3135,9.3125v4.5772a1.8689,1.8689,0,0,0,1.8623,1.8623H167.04a1.8682,1.8682,0,0,0,1.8623-1.8623v-4.5772A9.3411,9.3411,0,0,0,159.5888,275.5847Z"/><path class="cls-9" d="M159.4511,276.88h-2.1524a7.2,7.2,0,0,0-7.18,7.1788v3.5263a1.4406,1.4406,0,0,0,1.4356,1.4365h13.6386a1.4408,1.4408,0,0,0,1.4366-1.4365v-3.5263A7.2,7.2,0,0,0,159.4511,276.88Z"/><path class="cls-5" d="M65.6932,187.6267h63.4112c4.0732,0,7.4072,3.7407,7.4072,8.3111v66.4907c0,4.5693-3.334,8.3115-7.4072,8.3115H65.6932c-4.0742,0-7.4062-3.74-7.4062-8.3115V195.9373C58.287,191.367,61.619,187.6267,65.6932,187.6267Z"/><path class="cls-11" d="M133.9248,189.6414a8.7544,8.7544,0,0,1,2.5869,6.2964v66.4907c0,4.5693-3.334,8.3115-7.4072,8.3115H65.6932a7.1234,7.1234,0,0,1-5.7119-3.0361Z"/><path class="cls-9" d="M72.3505,196.1033h50.0966c3.2178,0,5.8506,2.9541,5.8506,6.5669V255.197c0,3.6123-2.6328,6.5664-5.8506,6.5664H72.3505c-3.2178,0-5.8516-2.9541-5.8516-6.5664V202.67C66.4989,199.0574,69.1328,196.1033,72.3505,196.1033Z"/><path class="cls-7" d="M72.6776,204.3425H83.3739a3.1151,3.1151,0,0,1,3.1055,3.106v3.1045H75.7831a3.1138,3.1138,0,0,1-3.1055-3.1045Z"/><polygon class="cls-15" points="123.88 207.498 125.503 208.619 130.635 210.488 130.951 213.386 129.543 216.967 122.429 213.204 123.88 207.498"/><path class="cls-15" d="M122.7372,213.242s-4.669-.4439-6.5547-2.8975-1.72-4.4614.2842-7.0225,5.3428.3482,6.6015,1.2085,2.4346,4.0884,2.4346,4.0884Z"/><path class="cls-16" d="M121.6678,209.6165s-29.48-24.1275-29.9873-24.8374.19-.8023.4473-.7495,29.8525,22.1938,30.6895,23.208A1.4651,1.4651,0,0,1,121.6678,209.6165Z"/><path class="cls-15" d="M117.6884,202.4168s-2.1895.8134-1.9971,1.4731.8867,1.311,2.4443.752,1.8086-.5123,1.918-.5948S118.535,202.1541,117.6884,202.4168Z"/><path class="cls-15" d="M116.0428,206.8713c-.0517-.1.2374-2.57,1.1036-2.166a1.95,1.95,0,0,1,.9765,1.4678s.9737-1.1216,1.38-.2446a5.8244,5.8244,0,0,1,.4639,1.8608s-.0723-1.3047,1.0049-.6a2.1046,2.1046,0,0,1,.8974,1.9595s.8711,1.0444.4639,1.3325-5.7891-1.3384-6.9717-2.3931-1.58-5.0693-.5937-4.5874S116.0428,206.8713,116.0428,206.8713Z"/><path class="cls-3" d="M203.4286,281.7146c2.2109-5.4453,4.0889-7.4209,4.3408-10.6543,1.11-14.2676-2.4033-37.6675-5.5947-51.4473-1.086-4.687.3672-1.9345-5.5293-5.3232-7.2295-2.5557-19.3818-5.3877-22.124.3569s-.5889-2.53.1728,5.9375c1.4444,16.0381-6.4521,20.6377-12.66,31.0542-1.4873,2.4952-4.3838,6.8614-4.3106,11.458.0479,3.0186-1.1015,3.9668-1.1015,3.9668S155.5194,289.0447,203.4286,281.7146Z"/><path class="cls-17" d="M199.8759,364.2468s3.6093,7.03,5.1738,8.6885-.3535,3.2324-1.8945,2.8008-4.668-3.7471-4.668-3.7471l-1.919-.1191s.2852-7.3262.6758-7.4414A26.0067,26.0067,0,0,1,199.8759,364.2468Z"/><path class="cls-17" d="M170.8368,353.1384s-8.0264,5.3565-9.53,7.0694,6.0293,1.1259,7.5537.64c.5713-.1816,1.0889-1.081,1.4346-1.0742.3965.0078.62.4941.7217.7969.1367.41,1.9971.3642,1.9638-.2637-.0751-1.4014-.3974-7.0127-.7431-7.1016A7.5762,7.5762,0,0,0,170.8368,353.1384Z"/><path class="cls-16" d="M199.9979,364.2488c5.6143-25.3369,6.876-54.1651,7.001-73.21.0537-8.1709.1465-20.207-.0137-21.2138-.1757-1.1006-.95,1.2382-2.8564,1.6074-3.9033.7549-11.6846.8144-22.6973-.8408-16.3926-2.4639-24.3125-6.2051-24.3125-6.2051s-3.208,8.6308.0313,35.2578S169.8651,354.34,169.8651,354.34l2.1514.1152s6.8183-41.4628,7.4658-52.7822a41.9972,41.9972,0,0,0-.4424-8.9892c.0625-.3018,1.0615.5527,2.21.3886,2.4492-.3506,2.7129-.6953,2.7129-.6953s-.8506,4.0488.3076,13.0664c2.3955,18.65,10.7871,53.3584,12.9736,58.9854.3291.8457,1.0381.4677,1.61.3359S199.86,364.7488,199.9979,364.2488Z"/><path class="cls-18" d="M161.5428,304.93c1.8135,11.2451,7.2959,32.2276,7.2959,32.2276a1.6262,1.6262,0,0,0,1.0762.6015c.4043.0332,2.5078-13.8037,3.6817-25.3974.7773-7.6778.84-14.7051.8369-14.8653-.0537-3.0185-6.7217-12.6142-8.7237-14.4677-5.332-4.9385-1.997-5.7891-3.583-3.3877C159.2988,283.9226,160.1766,296.4587,161.5428,304.93Z"/><path class="cls-18" d="M195.6932,288.25s-7.8584,12.5312-6.415,22.9131,6.2754,39.5439,7.375,40.78,4.9023-32.2344,5.4922-49.4707S202.29,285.45,195.6932,288.25Z"/><path class="cls-17" d="M207.9989,268.073s-.043,1.334-.2676,3.2588c-.7226,6.2-21.8662,5.6748-27.2441,4.8408-10.8281-1.6777-24.1934-6.3555-23.8428-9.7822a27.2782,27.2782,0,0,1,1.1016-3.9678c.1123-.293,11.8427,5.6045,24.2285,7.9688C191.3046,272.1726,202.3231,271.5711,207.9989,268.073Z"/><path class="cls-19" d="M183.6923,269.2029c-.1895-.0264-4.6123-1.377-5.29-1.2383s-4.0127,7.1143-2.3193,8.5889,8.1162,2.3681,8.3271,1.9707a6.833,6.833,0,0,0,.1084-1.9785l-.9062-.0557a.6146.6146,0,0,1-.5215.65c-.5527.0771-4.0547-.37-4.5078-1.0137s.5537-4.5342,1.457-5.4551,3.3565-.7343,3.3565-.7343l1.0976.1914-.0957.667,1.2588.165.3272-1.2451Z"/><path class="cls-19" d="M182.7548,272.5984s-3.6963-1.56-4.0791-1.0313.1953,1.6543.8691,1.8252,3.498.7579,3.498.7579S183.5048,272.78,182.7548,272.5984Z"/><path class="cls-16" d="M159.9149,306.9832c3.41,7.1562,10.4151,7.1,12.0479,6.24s2.209.3027,1.3965,1.4014S160.35,318.6892,159.9149,306.9832Z"/><path class="cls-16" d="M187.7528,316.5086c5.8428,5.3613,12.3184,2.69,13.51,1.2822s2.1621-.5449,1.82.7773S192.5419,327.2019,187.7528,316.5086Z"/><path class="cls-2" d="M183.7118,220.447c16.67,5.7593-24.2793,16.5489-52.5557-1.4326-4.0742-2.5908-6.4453-2.7236-6.4453-2.7236l3.6572-6.8028s9.42,5.6582,24.9981,5.482,24.9228-5.0142,24.9228-5.0142S185.9228,211.613,183.7118,220.447Z"/><path class="cls-2" d="M128.8085,210.3211c.6328.3686,9.93,5.63,24.9619,5.46a68.3842,68.3842,0,0,0,19.5742-2.9551,3.1848,3.1848,0,0,1-2.0351,2.6455,66.8651,66.8651,0,0,1-25.961,2.6333c-11.7539-1.2485-16.6543-7.66-16.6543-7.66Z"/><path class="cls-3" d="M181.577,226.3753c-10.7744,2.7329-32.622,2.4262-49.7978-8.4957-4.0742-2.59-6.4444-2.7231-6.4444-2.7231l1.3487-2.5093c9.9228,6.2329,39.1806,15.315,49.6289,6.751,2.8623-2.3462-.9766-7.9736-1.042-9.085l.2392-.0844C176.8036,211.8977,182.1338,219.2444,181.577,226.3753Z"/><path class="cls-20" d="M193.2186,213.9666c-.1064.9282-3.4922,3.7929-4.5273,4.8613s-1.14.63-2.1475.2217-2.6035-5.9839-2.6035-5.9839Z"/><path class="cls-17" d="M192.4658,215.1375c-.418.477-.9639,1.02-1.52,1.5522l-5.4512-3.4731,7.0928,1.3794-.1221.5415Zm-2.3779,2.3613-5.14-1.3662c.1416.38.29.7578.4414,1.11l3.85,1.05C189.4891,218.0554,189.78,217.7859,190.0878,217.4988Z"/><path class="cls-20" d="M188.6,218.8294s3.2519,20.3242,2.72,22.0986-8.7353,6.5683-8.7353,6.5683c-.4522-1.2363-4.0977-6.9653-3.7266-7.955l7.6865-20.4912Z"/><path class="cls-17" d="M191.3563,240.7214a1.2825,1.2825,0,0,1-.0371.2066c-.5322,1.7744-8.7353,6.5683-8.7353,6.5683-.1885-.5156-.9327-1.8134-1.709-3.2226Z"/><path class="cls-17" d="M188.8075,220.15c.0586.3759.1289.8227.2061,1.3247l-3.8233,1.184.6192-1.6528,2.998-.8559Zm.8457,5.5649c.1094.74.2227,1.51.334,2.2935l-7.5293,1.9331,1.1611-3.0943,6.0342-1.1323Zm.9678,6.8921c.0976.7471.19,1.4765.2744,2.1743a127.5166,127.5166,0,0,1-11.9746,5.436,1.22,1.22,0,0,1-.0635-.6762l1.3545-3.6114Z"/><path class="cls-2" d="M193.8828,225.0505c2.1572,1.7178,5.3525,6.2749,9.956,9.28,8.7881,5.7388,20.1,11.04,20.8086,16.7422,1.042,8.3887-15.5556,16.7764-15.5556,16.7764l1.207,4.0635s17.71-3.8135,22.9893-19.4844-21.9073-31.65-30.7217-35.57S193.8828,225.0505,193.8828,225.0505Z"/><path class="cls-2" d="M227.8436,236.824c-6.0781-7.2988-15.748-13.4649-22.1015-16.8164.2959,1.19,1.3711,2.8393,4.1621,4.9306,5.0244,3.7647,16.331,12.28,17.6777,14.2525C228.4305,240.4353,228.3153,238.8953,227.8436,236.824Z"/><path class="cls-3" d="M211.9813,271.43c4.4473-1.379,16.3858-6.1319,20.501-18.3477a13.0812,13.0812,0,0,0-.15-8.5645c-4.03,13.043-8.7871,18.7354-22.4932,25.8838C209.8388,270.4011,210.7382,270.8357,211.9813,271.43Z"/><path class="cls-3" d="M197.01,226.364c2.1016,1.4322,4.3252,5.15,7.3008,7.0845,8.9278,5.8042,20.3213,11.3379,21.0479,17.1909a7.8585,7.8585,0,0,1-1.1162,4.7842c10.2343-9.8677-8.4287-19.7681-15.0127-24.1973-3.9824-2.6792-4.1133-9.7695-4.4092-13.2968-.5332-.2579-1.18-.5557-1.4736-.6871s-.2813-.1215-.419-.1762C200.8778,218.5994,198.46,221.6521,197.01,226.364Z"/><path class="cls-21" d="M177.6942,209.2117c-.09,5.5742-5.791,23.5073-8.3027,28.853-3.73,7.9385-10.207,15.4995-11.7119,24.3608a189.7561,189.7561,0,0,0,18.0976,6.504c7.0059,1.871,18.7754,4.0693,26.26,2.1376a18.0014,18.0014,0,0,0,5.9609-2.9941c-.54-12.6328-1.8437-24.6553-3.5478-37.1934l-1.4971-13.7631-2.7871-1.0953-1.7441-.7963s-.1592,7.46-4.17,12.2265a26.4587,26.4587,0,0,1-8.8349,6.8174c-6.2969-6.208-5.0957-13.478-3.2764-24.2285Z"/><path class="cls-22" d="M177.6942,209.2117c-.31,19.0762-18.584,34.35-21.5937,52.0859-1.211,7.1328,18.9726,11.3213,22.7607,11.9932,8.6211,1.53,19.9688.9472,25.0938-.375,3.2822-.8467,4.0429-4.8428,4.0429-4.8428-.54-12.6328-.48-22.66-2.1845-35.1982l-1.7286-15.293-3.9189-1.5606c-.1289,8.3267,2.5478,40.1124-6.1084,45.8917-8.5566,5.7138-32.4-.7208-25.56-12.7354,5.3349-9.3721,10.1552-28.3091,10.5537-39.7134Z"/><path class="cls-15" d="M210.4208,267.1941s-1.5625-1.21-2.2266-.46c-3.6865,4.1651-4.0176,3.585-9.3545,3.8848,0,0-1.372,1.293.22,2.126.8955.4687,2.8281-.0205,3.3085.0849.9239.2022.5459.6377-.0644.5528-.541-.0752-2.665.2285-3.3291.1328a.9739.9739,0,0,0-.7305.2266,1.3021,1.3021,0,0,0,.4317,1.9941c1.2314.8809,4.8076-.1045,4.8076-.1045.0058.0088.2695.1836-.0313.4629-.1738.1611-.3076.2656-.916.3437-1.083.1387-3.373-.4492-3.626,1.2881s2.4,1.55,3.1983,1.3711a16.9544,16.9544,0,0,0,3.1943-1.1631,11.57,11.57,0,0,0-1.7695,1.1416c-.31.38-.2881.8672.4707,1.2764,1.7695.9541,3.57-.915,4.7148-1.7236s3.045-7.1094,3.045-7.1094Z"/><path class="cls-23" d="M210.4208,267.1941s-1.5625-1.21-2.2266-.46a17.2017,17.2017,0,0,1-2.875,2.7891,7.0712,7.0712,0,0,0,1.2285,2.8428c1.1895,1.8037,1.6348,4.5361,2.3428,6.1064,1.1523-1.25,2.8731-6.9531,2.8731-6.9531Z"/><path class="cls-24" d="M198.7,271.1912c-.1221.6035.333,1.3642.8574,1.3593s.5557-.0976.5557-.0976l-.0752-1.4053A1.5175,1.5175,0,0,0,198.7,271.1912Z"/><path class="cls-24" d="M199.3778,273.9783a.4872.4872,0,0,0-.6269.61,1.2747,1.2747,0,0,0,1.0351,1.0547c.293-.0176.2012-1.1738.1553-1.3926C199.8934,274.031,199.8768,273.8738,199.3778,273.9783Z"/><path class="cls-24" d="M200.2684,277.0466c-.1064-.0722-.6435.0274-.5722.7735a.95.95,0,0,0,1.0341.9179c.4424.0225.2686-1.5126.2139-1.6748S200.8016,276.83,200.2684,277.0466Z"/><path class="cls-24" d="M204.7128,278.8084s-1.126.288-.6582.8183.7353.7022,1.1338.6221a1.414,1.414,0,0,0,.5957-.2461Z"/><path class="cls-23" d="M204.0145,196.78c.8828-1.9795,3.2715-.7514,2.9883,1.3291s-1.0742,4.2974-2.1777,4.314-1.5987-.0151-1.8584-1.3076S204.0145,196.78,204.0145,196.78Z"/><path class="cls-23" d="M184.1825,189.5833c.2725-2.1495-2.4072-2.3379-3.2451-.4117s-1.3135,4.23-.3779,4.8164,1.374.8155,2.2675-.1547S184.1825,189.5833,184.1825,189.5833Z"/><path class="cls-20" d="M204.0878,197.6121c.6133-.5967,1.7207-.04,1.5381,1.3213s-1.34,2.03-1.8633,1.5854S204.0878,197.6121,204.0878,197.6121Z"/><path class="cls-20" d="M183.6874,190.2566c-.2149-.8276-1.45-.9253-2.001.333s.0908,2.43.7686,2.3208S183.6874,190.2566,183.6874,190.2566Z"/><path class="cls-16" d="M205.58,192.7835c1.4472-1.042,6.5576-3.752.9834-7.6231.248-.5591.4033-1.0869.6621-1.5972.4131-.8115-1.3809-.4209-1.3809-.4209l.0811-1.5009-1.4141.3965a1.9353,1.9353,0,0,0-.5576-.7691c-.3574-.2524-.9414-.1118-1.7149.1636a11.102,11.102,0,0,1-2.625.1221,36.9344,36.9344,0,0,0-5.72-1.8951,12.0856,12.0856,0,0,0-2.5117-1.9687c-1.6387-.957-2.2705.4785-2.2705.4785s-.4053-.8433-.9951-.7954-.7471.312-.793.8057-.4707-.292-1.3369.36-.4092,2.0713-.4092,2.0713c-2.9834,3.4146-1.5488,6.4033,2.6777,8.5215S204.8065,194.8606,205.58,192.7835Z"/><path class="cls-23" d="M204.1718,187.1965c1.7724,6.566-.1387,12.9244-2.1592,17.9766a12.5255,12.5255,0,0,1-5.917,6.46c-6.1719,3.0551-16.89-.9971-17.1065-8.55-.2392-8.3106,6.3487-17.8716,11.753-23.919C193.7743,175.7717,204.1913,178.3406,204.1718,187.1965Z"/><path class="cls-15" d="M203.11,187.4973c-.55-2.373-.8291-6.165-3.5713-7.8178a7.5443,7.5443,0,0,0-3.7763-1.3252,7.2677,7.2677,0,0,0-2.5762.5136c-5.1816,1.83-12.2217,15.2-12.8467,21.229-1.0693,10.32,14.5528,14.9117,19.499,6.5606C203.97,199.6829,203.746,190.242,203.11,187.4973Z"/><path class="cls-16" d="M199.868,194.242c.1709-.6685-2.5947-2.2872-3.7031-2.1646s-1.3066.728-1.3066.728.0508.1436.2724.0357a1.7622,1.7622,0,0,1,1.5313-.2407,6.4154,6.4154,0,0,1,2.4258,1.61C199.4248,194.4817,199.7186,194.6028,199.868,194.242Z"/><path class="cls-16" d="M198.1766,193.0925a.8927.8927,0,0,1-1.1552,1.0015c-1.295-.1919-1.11-1.1431-.7539-1.5312.1611-.1753.5019.082.8769.1606C197.5985,192.8186,198.0888,192.7815,198.1766,193.0925Z"/><path class="cls-16" d="M185.8456,188.9216c.3525-.5942,3.4541.2129,4.1523,1.0816s.4092,1.437.4092,1.437-.1367.0659-.2178-.167a1.7608,1.7608,0,0,0-.9131-1.251,6.4234,6.4234,0,0,0-2.8564-.5732C185.99,189.4031,185.6962,189.282,185.8456,188.9216Z"/><path class="cls-16" d="M187.2225,188.992a.8916.8916,0,0,0,.1084,1.5239c1.0528.7783,1.5948-.0249,1.6172-.5513.01-.2383-.4131-.2964-.7344-.5059C187.8251,189.2063,187.5048,188.8342,187.2225,188.992Z"/><path class="cls-16" d="M201.8749,190.8367c.64,1.626,2.8135,3.5991,4.5019,1.5141a3.3066,3.3066,0,0,0-.6787-5.1445C204.21,186.366,199.7528,187.99,201.8749,190.8367Z"/><path class="cls-16" d="M187.2264,180.5281c1.13.5371,2.961,3.9053,1.1748,5s-2.999,2.0073-4.2089.3725S184.85,179.3123,187.2264,180.5281Z"/><path class="cls-25" d="M197.8808,180.8972c1.4795.9087,2.6026,2.5606.87,3.2657s-5.6211-.629-5.7081-2.09S195.8641,180.136,197.8808,180.8972Z"/><path class="cls-16" d="M199.8838,191.6155c.2265.5845-.7364.9233-1.6524.32a6.5992,6.5992,0,0,0-2.8418-1.0107c-.3271.082-.3818-.4971.07-.7178S199.5194,190.1253,199.8838,191.6155Z"/><path class="cls-16" d="M187.98,186.532c-.581.2363-.166,1.168.9024,1.4184a6.6111,6.6111,0,0,1,2.6875,1.3682c.165.294.624-.0644.4736-.5444S189.3143,185.7722,187.98,186.532Z"/><ellipse class="cls-26" cx="197.6684" cy="197.6875" rx="2.3774" ry="1.7952" transform="translate(-46.003 334.7182) rotate(-74.3544)"/><ellipse class="cls-26" cx="185.1635" cy="193.985" rx="2.3774" ry="1.7952" transform="translate(-51.5701 319.9727) rotate(-74.3544)"/><path class="cls-16" d="M193.8329,199.5789c1.082.2627,1.499-.8677,1.7871-1.5782s.1641-1.2641,1.06-1.3325,3.4248,1.5078,3.7861,3.0269a2.2433,2.2433,0,0,1-.4785,2.2407c6.5078,2.67,2.7012,8.47-2.5137,12.17-8.6875,6.1646-26.4092-4.0346-20.66-15.14.8681-1.6773,1.8134-2.9693,3.7539-2.8145l1.5976.1275a3.7071,3.7071,0,0,1,.53-2.5337c.7988-1.273,3.5937-.1,3.7842.0732a3.385,3.385,0,0,1,.3681,1.6431C186.7723,195.741,191.19,201.1912,193.8329,199.5789Z"/><path class="cls-23" d="M195.5331,198.3108a2.9208,2.9208,0,0,1-1.2637,1.7256c-.8642.52-2.1933.6406-4.1719-.0957-4.02-1.4971-4.372-2.5069-4.0117-3.5581.1348-.3941.2588-.7554.36-1.0523C187.0908,193.44,195.786,197.4573,195.5331,198.3108Z"/><path class="cls-15" d="M195.4276,197.5408c-.4189,1.414-1.7588,2.6963-4.9863,1.4951-3.6895-1.373-4.0117-2.3-3.6817-3.2642.125-.3618.2374-.6933.3311-.9658C187.6825,193.072,195.66,196.7576,195.4276,197.5408Z"/><path class="cls-25" d="M193.4891,196.9978c.6172.5381.1153,1.6777-1.9726,1.1675s-3.7432-1.04-3.4873-1.7788S188.2343,194.658,193.4891,196.9978Z"/><path class="cls-20" d="M192.037,205.1492c-.168.52-2.377,1.2427-4.6123.0766s-2.1836-2.28-1.8184-2.604,1.31-.1425,1.7832.2422S190.3221,205.3254,192.037,205.1492Z"/><path class="cls-3" d="M225.3143,246.74c.09-.2021,2.7852-2.4033,2.8077-2.0889a12.64,12.64,0,0,1-.292,1.6846,8.9989,8.9989,0,0,1,1.7744-.4941c.2246.0673-.8311,1.8413-.8311,1.8413s.876.18.7637.6513-3.9111,4.8589-3.751,4.9644S223.65,247.0379,225.3143,246.74Z"/></g></g></svg>

