<svg xmlns="http://www.w3.org/2000/svg" viewBox="0 0 251.5591 378.2467"><defs><style>.cls-1,.cls-7{fill:#ffe589;}.cls-1,.cls-11,.cls-12,.cls-13,.cls-14,.cls-15,.cls-16,.cls-17,.cls-18,.cls-3,.cls-4,.cls-6,.cls-8,.cls-9{fill-rule:evenodd;}.cls-2,.cls-3{fill:#fff3a7;}.cls-4{fill:#fff;}.cls-5,.cls-8{fill:#34475b;}.cls-6{fill:#abcdbd;}.cls-10,.cls-9{fill:#e3961e;}.cls-11{fill:#f8cbb0;}.cls-12{fill:#e1a27e;}.cls-13{fill:#f3d8c8;}.cls-14{fill:#390a0a;}.cls-15{fill:#e5e5e5;}.cls-16{fill:#280a0f;}.cls-17{fill:#1e0d0d;}.cls-18{fill:#980608;}</style></defs><title>Ресурс 2</title><g id="Слой_2" data-name="Слой 2"><g id="Слой_1-2" data-name="Слой 1"><path class="cls-1" d="M125.78,378.2467c69.2768,0,125.7788-7.5264,125.7788-16.7559,0-9.2246-56.502-16.7471-125.7788-16.7471S0,352.2662,0,361.4908C0,370.72,56.5039,378.2467,125.78,378.2467Z"/><path class="cls-2" d="M146.0356,77.2408a29.2292,29.2292,0,1,1-40.9985,5.2774,29.2328,29.2328,0,0,1,40.9985-5.2774Zm4.3389,40.2734a28.0437,28.0437,0,1,0-39.3354,5.0635A28.0475,28.0475,0,0,0,150.3745,117.5142Z"/><path class="cls-2" d="M150.5923,71.3365a36.6923,36.6923,0,1,1-27.1011-7.3437,36.5744,36.5744,0,0,1,27.1011,7.3437Zm12.7929,24.5093a35.497,35.497,0,1,0-7.1064,26.2261A35.3938,35.3938,0,0,0,163.3852,95.8458Z"/><path class="cls-2" d="M155.6772,64.75A45.0141,45.0141,0,1,1,122.4287,55.74,44.8665,44.8665,0,0,1,155.6772,64.75Zm15.96,30.0342a43.8154,43.8154,0,1,0-8.7715,32.3721A43.6835,43.6835,0,0,0,171.6372,94.7838Z"/><path class="cls-2" d="M161.2866,57.4815a54.1912,54.1912,0,1,1-40.03-10.8491,54.0168,54.0168,0,0,1,40.03,10.8491Zm19.458,36.13a52.9906,52.9906,0,1,0-10.6074,39.1577A52.8411,52.8411,0,0,0,180.7446,93.6114Z"/><path class="cls-2" d="M167.4263,49.5279A64.2456,64.2456,0,1,1,119.9741,36.67a64.0381,64.0381,0,0,1,47.4522,12.8579Zm23.2822,42.8008a63.0439,63.0439,0,1,0-12.6221,46.5772A62.8546,62.8546,0,0,0,190.7085,92.3287Z"/><path class="cls-2" d="M174.09,40.8951a75.1454,75.1454,0,0,1,13.5674,105.3984l.002.0015a75.15,75.15,0,0,1-105.4,13.5669l-.0015.002A75.1546,75.1546,0,0,1,68.69,54.462l.0015.0015a75.1509,75.1509,0,0,1,105.4-13.57l-.001.0019Zm27.4356,50.041A73.7321,73.7321,0,0,0,173.3686,41.83l-.0019.0019a73.9724,73.9724,0,0,0-103.74,13.3526l.0019.0019A73.9666,73.9666,0,0,0,82.9829,158.9249l-.0015.0019a73.9706,73.9706,0,0,0,103.74-13.3564l.0019.002A73.7309,73.7309,0,0,0,201.5259,90.9361Z"/><path class="cls-2" d="M181.2837,31.5763a86.9272,86.9272,0,1,1-64.2051-17.397,86.6442,86.6442,0,0,1,64.2051,17.397Zm31.915,57.8574a85.7139,85.7139,0,1,0-17.16,63.3291A85.465,85.465,0,0,0,213.1987,89.4337Z"/><path class="cls-2" d="M189.0024,21.5767A99.5475,99.5475,0,1,1,49.373,39.5514,99.56,99.56,0,0,1,189.0024,21.5767Zm17.0352,138.9048a98.3613,98.3613,0,1,0-137.9653,17.76A98.3731,98.3731,0,0,0,206.0376,160.4815Z"/><circle class="cls-2" cx="174.1067" cy="126.2225" r="7.5359" transform="translate(-32.1948 186.9265) rotate(-52.3375)"/><circle class="cls-2" cx="167.0298" cy="77.7648" r="6.7858" transform="translate(3.4076 162.4648) rotate(-52.3341)"/><circle class="cls-2" cx="100.4599" cy="124.428" r="5.0761" transform="translate(-59.4221 127.9265) rotate(-52.337)"/><circle class="cls-2" cx="128.1749" cy="100.3785" r="18.272" transform="translate(-29.6037 140.5103) rotate(-52.3366)"/><circle class="cls-2" cx="136.1589" cy="161.4623" r="11.3808" transform="translate(-74.8531 170.5862) rotate(-52.3354)"/><circle class="cls-2" cx="143.0185" cy="27.9272" r="6.7859" transform="translate(73.0493 155.7495) rotate(-72.353)"/><path class="cls-3" d="M153.9653,31.4073c-.9619,2.94-6.5683,3.273-12.7363,1.2544s-10.8223-4.5459-9.8594-7.4868c.6807-2.0825,3.6563-2.6646,7.2383-2.3179a4.6966,4.6966,0,0,0-1.2822,1.3579v.001c-1.2569.1616-2.1709.6211-2.4522,1.479-.6767,2.0674,2.7227,3.4,7.0586,4.8184s8.2227,1.3095,8.8994-.7578c.2159-.6612-.2812-1.3951-1.2158-2.1094a12.4892,12.4892,0,0,0-.208-1.5733C152.49,27.6773,154.5454,29.6358,153.9653,31.4073Z"/><circle class="cls-2" cx="225.6416" cy="124.7107" r="9.1504" transform="translate(-10.9562 227.1235) rotate(-52.3348)"/><path class="cls-3" d="M234.5268,126.9a9.151,9.151,0,1,1-17.4218-5.4868Z"/><circle class="cls-2" cx="111.0203" cy="3.9049" r="3.9049" transform="translate(23.009 71.6896) rotate(-39.6172)"/><path class="cls-4" d="M105.4517,239.5167l-48.82-30.8628a1.5842,1.5842,0,0,0-2.18.4912l-6.7554,10.686a1.5849,1.5849,0,0,0,.4912,2.1807l48.82,30.8628a1.5848,1.5848,0,0,0,2.18-.4912l6.7554-10.6865A1.5846,1.5846,0,0,0,105.4517,239.5167Z"/><path class="cls-5" d="M100.6416,245.8532h8.1567a.5095.5095,0,0,1,.5095.5095v4.0789a.5094.5094,0,0,1-.5094.5094h-8.1562a.51.51,0,0,1-.51-.51v-4.0777A.51.51,0,0,1,100.6416,245.8532Z" transform="translate(-161.1986 204.1611) rotate(-57.6952)"/><rect class="cls-5" x="105.5438" y="249.1654" width="4.8332" height="2.5702" transform="matrix(0.5343, -0.8453, 0.8453, 0.5343, -161.4295, 207.9067)"/><path class="cls-6" d="M111.8935,246.9371a.322.322,0,0,0-.4428.1l-5.0767,8.0308a.321.321,0,0,0,.1.4423C111.8188,258.89,117.1846,250.2818,111.8935,246.9371Z"/><path class="cls-5" d="M95.1862,228.8446h.9684a1.937,1.937,0,0,1,1.937,1.937v2.47a1.9359,1.9359,0,0,1-1.9359,1.9359H95.188a1.9372,1.9372,0,0,1-1.9372-1.9372v-2.47a1.9353,1.9353,0,0,1,1.9353-1.9353Z" transform="translate(-151.5703 188.9335) rotate(-57.7066)"/><circle class="cls-7" cx="43.1613" cy="209.4391" r="7.3827" transform="translate(-156.9318 134.0044) rotate(-57.6992)"/><path class="cls-5" d="M44.0335,202.2641H60.04a2.0008,2.0008,0,0,1,2.0008,2.0008v21.7415a2.0011,2.0011,0,0,1-2.0011,2.0011H44.0332a2.0007,2.0007,0,0,1-2.0007-2.0007V204.2651a2.001,2.001,0,0,1,2.001-2.001Z" transform="translate(-157.615 144.1613) rotate(-57.6998)"/><path class="cls-8" d="M83.0132,248.818H71.7109c-.5761,0-1.0478.3545-1.0478.789v6.31c0,.4346.4717.7891,1.0478.7891H83.0132c.5761,0,1.0483-.3545,1.0483-.7891v-6.31C84.0615,249.1725,83.5893,248.818,83.0132,248.818Z"/><circle class="cls-7" cx="77.4467" cy="231.458" r="6.1259" transform="translate(-155.4911 304.333) rotate(-88.872)"/><path class="cls-1" d="M77.5322,231.5977h0a3.32,3.32,0,0,0-3.31,3.3091v17.22a3.32,3.32,0,0,0,3.31,3.31h0a3.3188,3.3188,0,0,0,3.3091-3.31v-17.22A3.3188,3.3188,0,0,0,77.5322,231.5977Z"/><circle class="cls-5" cx="77.4467" cy="231.4579" r="3.7056" transform="translate(-155.487 304.3456) rotate(-88.8751)"/><circle class="cls-5" cx="77.5326" cy="252.2037" r="1.4446" transform="translate(-176.1539 324.7375) rotate(-88.8677)"/><path class="cls-8" d="M77.3706,269.2652h0c-1.019,0-1.853,1.251-1.853,2.7793V356.04c0,1.5284.834,2.7793,1.853,2.7793h0c1.019,0,1.8525-1.2509,1.8525-2.7793V272.0445C79.2231,270.5162,78.39,269.2652,77.3706,269.2652Z"/><path class="cls-1" d="M79.8755,287.6842h-5.01c-.3447,0-.6269.7949-.6269,1.7656v35.4873c0,.9717.2822,1.7656.6269,1.7656h5.01c.3447,0,.6264-.7939.6264-1.7656V289.45C80.5019,288.4791,80.22,287.6842,79.8755,287.6842Z"/><path class="cls-4" d="M81.2,259.8463H73.5415c-.5269,0-.9575.5976-.9575,1.3281v26.6807c0,.73.4306,1.3281.9575,1.3281H81.2c.5264,0,.9575-.5977.9575-1.3281V261.1744C82.1572,260.4439,81.7261,259.8463,81.2,259.8463Z"/><path class="cls-5" d="M73.1093,354.9586h8.5225a.6021.6021,0,0,1,.6021.6021v2.811a.6015.6015,0,0,1-.6015.6015H73.1089a.6021.6021,0,0,1-.6021-.6021v-2.81A.6025.6025,0,0,1,73.1093,354.9586Z"/><path class="cls-8" d="M73.0864,270.1568h0c-.9194-.4394-2.2109.3291-2.87,1.708L34.0029,347.6529c-.6592,1.38-.4458,2.8672.4737,3.3067h0c.9194.4394,2.2109-.3291,2.87-1.709L73.56,273.4635C74.2192,272.0836,74.0058,270.5953,73.0864,270.1568Z"/><path class="cls-1" d="M67.4058,287.856l-4.5206-2.1611c-.311-.1484-.9077.4473-1.3266,1.3242L46.2593,319.0377c-.419.8769-.5078,1.7158-.1968,1.8642l4.521,2.16c.31.1484.9077-.4473,1.3262-1.3232l15.3-32.02C67.6284,288.8424,67.7168,288.0045,67.4058,287.856Z"/><path class="cls-4" d="M80.602,263.3092l-6.91-3.3018c-.4751-.2275-1.1216.126-1.4366.7852L60.7529,284.8668a1.1921,1.1921,0,0,0,.291,1.61l6.91,3.3018c.4751.2275,1.1211-.126,1.436-.7852l11.5034-24.0742A1.1921,1.1921,0,0,0,80.602,263.3092Z"/><path class="cls-5" d="M31.5966,347.2809H40.12a.6021.6021,0,0,1,.6021.6021v2.81a.6025.6025,0,0,1-.6025.6025h-8.523a.602.602,0,0,1-.602-.602v-2.8111A.6015.6015,0,0,1,31.5966,347.2809Z"/><path class="cls-8" d="M81.4087,269.9957h0c.92-.44,2.2114.3291,2.87,1.708l36.2139,75.7881c.6591,1.38.4458,2.8672-.4737,3.3066h0c-.9194.44-2.2109-.3291-2.87-1.709l-36.2134-75.788C80.2764,271.9225,80.49,270.4351,81.4087,269.9957Z"/><path class="cls-1" d="M87.09,287.6939l4.521-2.1591c.3106-.1495.9073.4462,1.3262,1.3232l15.3,32.0195c.419.876.5068,1.7149.1963,1.8633l-4.521,2.16c-.31.1484-.9072-.4473-1.3267-1.3243L87.2861,289.5582C86.8672,288.6812,86.7788,287.8424,87.09,287.6939Z"/><path class="cls-4" d="M73.8931,263.148l6.9106-3.3017c.4751-.2276,1.1211.126,1.436.7851l11.503,24.0743a1.1922,1.1922,0,0,1-.2915,1.61l-6.91,3.3018c-.4751.2275-1.1216-.126-1.4365-.7852L73.602,264.7584A1.1923,1.1923,0,0,1,73.8931,263.148Z"/><path class="cls-5" d="M114.3755,347.1187h8.5224a.6026.6026,0,0,1,.6026.6026v2.8105a.6016.6016,0,0,1-.6016.6016H114.375a.6021.6021,0,0,1-.6021-.6021v-2.81A.6026.6026,0,0,1,114.3755,347.1187Z"/><path class="cls-8" d="M174.27,343.56l-3.99,11.4776c-1.0137,2.916,4.1533,4.416,9.2363,4.3926,4.7764-.0215,9.4307-1.4922,8.7744-3.3828l-4.39-12.6407Z"/><path class="cls-8" d="M159.311,336.6451l-4.5488,11.4766c-1.1377,2.8711,4.1523,4.416,9.2373,4.3925,4.7764-.0214,9.416-1.4863,8.7744-3.3828l-4.2783-12.6406Z"/><path class="cls-8" d="M189.6616,336.6441l-3.7676,11.4776c-.9619,2.9336,4.1534,4.416,9.2373,4.3925,4.7754-.0214,9.46-1.5019,8.7745-3.3828l-4.6133-12.6406Z"/><path class="cls-9" d="M206.937,288.6295c2.6094.8369,13.4023,10.4346,18.9326,26.4785,4.0615,11.7822,4.6426,26.6953,4.6651,33.7861.02,6.17-3.7207,5.5938-5.5088.61-2.7129-7.5557-9.6407-25.0147-16.2871-26.7442a50.6393,50.6393,0,0,0-17.4571-.9423S205.6108,300.1353,206.937,288.6295Z"/><path class="cls-9" d="M153.4917,289.5348c-2.625.7851-13.6016,10.1738-19.44,26.1074-4.38,11.95-5.1934,27.2363-5.3272,34.1308-.1025,5.3262,3.6074,5.3223,5.2608.9229,2.6679-7.0957,10.1679-25.4229,17.0459-27.0723a84.67,84.67,0,0,1,18.6835-1.792S154.5962,301.0631,153.4917,289.5348Z"/><path class="cls-4" d="M180.9263,180.9723c-14.6709-.1416-27.36,70.5888-27.7344,109.3515-.1553,16.05-.0537,34.4912,3.1933,43.8887,4.4336,12.8271,39.7315,12.09,45.1163.5879,4.48-9.5694,4.9355-25.71,4.8252-43.9629C206.0933,251.9,195.5962,181.1143,180.9263,180.9723Z"/><circle class="cls-5" cx="179.9094" cy="295.6344" r="9.5014" transform="translate(-117.4493 472.6793) rotate(-89.4465)"/><circle class="cls-7" cx="179.9092" cy="295.6349" r="5.5095" transform="translate(-117.4505 472.6786) rotate(-89.4463)"/><path class="cls-8" d="M180.7378,209.8321c-7.7852-.1621-14.1592,13.28-14.2344,30.0176s6.1768,30.4409,13.9619,30.603,14.1592-13.28,14.2344-30.0176S188.5229,209.9937,180.7378,209.8321Z"/><path class="cls-1" d="M180.3149,220.7589c-4.5146-.0684-8.2109,5.5923-8.2539,12.64s3.5821,12.8194,8.0957,12.8872,8.211-5.5923,8.2549-12.6406S184.83,220.8267,180.3149,220.7589Z"/><circle class="cls-5" cx="179.0336" cy="324.216" r="5.823" transform="translate(-146.9087 500.087) rotate(-89.4426)"/><circle class="cls-7" cx="178.8574" cy="324.1163" r="3.3767" transform="translate(-146.9758 499.8265) rotate(-89.4451)"/><path class="cls-9" d="M180.5854,190.5772c-4.122-.04-7.9765-2.0229-11.3095-5.9824,1.3584-2.957,6.1416-5.1094,11.8115-5.0547,5.2949.0513,9.7783,2.0122,11.4092,4.7C188.9731,188.5216,184.9058,190.6187,180.5854,190.5772Z"/><polygon class="cls-9" points="169.077 195.2 192.51 195.741 183.789 168.501 178.858 168.453 169.077 195.2"/><circle class="cls-10" cx="181.1982" cy="165.8368" r="4.0795" transform="translate(13.6126 345.4187) rotate(-89.4445)"/><path class="cls-9" d="M180.3247,189.6959c-4.1221-.04-8.0147,1.8686-11.4229,5.7627,1.3008,2.9824,6.0411,5.227,11.711,5.2822,5.2959.0508,9.8154-1.8227,11.4971-4.4785C188.6714,191.9132,184.644,189.7379,180.3247,189.6959Z"/><path class="cls-11" d="M104.1426,238.2286l1.0625,119.1733,4.6494-3.8115s12.1328-85.9228,11.7065-103.7246S112.6787,218.044,104.1426,238.2286Z"/><path class="cls-12" d="M106.1811,277.6461l.1368,15.3613a20.1214,20.1214,0,0,0,5.9018.0576c2.5889-.5009-3.0137,49.4053-1.811,60.2149l1.1216-.919s6.3657-45.084,9.7129-76.7041Z"/><path class="cls-11" d="M107.6982,352.9644s-1.4062,2.7735.772,3.9532,8.03,4.88,9.53,4.1455,1.9375-.9776,1.5493-1.335-9.228-8.5078-9.228-8.5078S107.831,350.7916,107.6982,352.9644Z"/><path class="cls-13" d="M109.9971,294.5142l-2.3931,57.74s-.3823-56.2822-.0859-57.13S109.9971,294.5142,109.9971,294.5142Z"/><path class="cls-14" d="M106.78,352.05a7.8119,7.8119,0,0,0,3.2153,3.5537c2.1719,1.3369,6.2232,4.0547,7.1831,3.93a3.0653,3.0653,0,0,0,1.51-.6c.8564.5986,3.7607,2.7109,1.4555,3.2226a8.7813,8.7813,0,0,1-4.6772-.4179c-2.1655-.8389-6.748-3.4854-8.585-5.5674C106.1079,355.2965,106.76,353.107,106.78,352.05Z"/><path class="cls-14" d="M106.8159,354.4752s-.439.2715-.0625,1.3594a9.4422,9.4422,0,0,1,.5269,2.8632c.0468.9551.0893,1.6309.0893,1.6309l.501.1885s-.1353-1.1924.3437-1.6309a2.2754,2.2754,0,0,1,1.79-.2119C110.2124,358.7584,108.0742,354.3228,106.8159,354.4752Z"/><path class="cls-11" d="M90.2246,212.8116a10.6437,10.6437,0,0,1,3.4126,4.1,10.3005,10.3005,0,0,0-1.6274,1.19c-.9639.8632-2.2149,1.6689-2.0074,3.1274.15,1.061.6309,3.6567-.0132,4.1328-1.0629.7861.9781,1.1729.9781,1.1729,6.4458-10.6426,8.6611-8.8311.3716-15.5713C90.9014,211.58,90.6621,212.1954,90.2246,212.8116Z"/><path class="cls-11" d="M152.4507,157.295s2.6826-2.1338,2.8613-4.3906-.7256-3.4214-2.9736-4.1919-3.1328,2.3437-3.5606,3.3735.1367,3.4776.1367,3.4776Z"/><polygon class="cls-11" points="149.463 154.229 148.914 155.564 148.161 161.146 147.479 160.659 149.768 162.293 152.625 157.149 149.463 154.229"/><path class="cls-4" d="M97.2339,179.6568s.7993,5.7442-2.2549,5.7989c-8.6572.1543-19.5459,11.205-19.1812,12.3691l18.0787,14.1978-3.8033,5.1533s-9.1855-13.3394-17.97-16.8272c-1.5439-.6133-3.1269-1.8574-2.8545-3.1372,1.0655-4.9931,22.1573-25.2295,22.1573-25.2295S103.1445,173.0807,97.2339,179.6568Z"/><path class="cls-15" d="M95.72,180.0255c-1.59,1.38-15.9995,10.2427-19.3027,15.3613-.8013,1.2412-2.083,2.2524-1.6138,2.6206l18.2847,14.3955c-.376.43-.6348.7-.6348.7L73.4878,198.2457C71.5264,196.71,87.334,184.21,93.9917,177.4723,94.6875,175.964,95.2588,177.297,95.72,180.0255Z"/><path class="cls-15" d="M114.6538,165.4171s-3.27.893.4014,6.8452c2.9834,4.8364,13.0849,16.9023,18.7187,21.7754,2.82,2.44,5.0938,3.7485,6.6026.458,4.1523-9.0557,12.68-30.1777,11.1445-31.7642-1.2022-1.2422-4.291-4.1836-6.1084-1.9873-.9609,1.1621-5.8281,24.836-8.4512,26.6778S125.3657,166.1832,114.6538,165.4171Z"/><path class="cls-4" d="M147.0874,159.9537c-.5518.667-5.8232,16.9243-8.5029,24.2871a8.3712,8.3712,0,0,1-1.6231,3.1812c-.4082.2866-.9707.042-1.6562-.586-3.3057-3.0268-9.4893-14.9594-15.2349-19.2641a5.9137,5.9137,0,0,0-.2324,3.8169c.8584.9809,13.1313,18.3769,16.01,20.06s3.1778-3.1679,4.3184-4.2817,9.1689-26.3316,9.1689-26.3316C149.3354,160.8253,147.2983,159.6988,147.0874,159.9537Z"/><path class="cls-16" d="M91.4018,139.2848c-.9794.4941-3.4921,1.3994-5.6074-1.6006-1.0581-1.4995-1.4946-3.0616-.7583-4.1685a5.7142,5.7142,0,0,1,3.3374-2.8467,4.785,4.785,0,0,1,5.836,3.2251C94.4643,135.2159,94.3057,139.0431,91.4018,139.2848Z"/><path class="cls-9" d="M97.11,142.7027c-1.23.6206-4.3838,1.7569-7.04-2.0093-1.3271-1.8823-.459-4.6577.4653-6.0468s1.9048-1.3921,4.0948-1.9385c4.3784-1.0933,5.684,1.5679,6.0039,3.228S100.7539,142.4,97.11,142.7027Z"/><path class="cls-11" d="M112.4683,242.0309l-6.129,119.02-4.4834-4.0049c-.0869-.0781-7.5966-62.9414-4.6787-92.626.6465-6.5723-3.6616-6.6553-4.3613-9.2C89.0156,241.4019,104.7978,221.5025,112.4683,242.0309Z"/><path class="cls-12" d="M110.6665,277.0035l-.9116,17.708-3.0562,59.3535-1.46,3.1289,2.6245-63.15s-1.3364-.166-5.1787-.7519a24.3923,24.3923,0,0,1-5.8179-2.169c-.3379-3.9-.6792-7.6806-1.0181-11.2529l10.0572-7.1045Z"/><path class="cls-4" d="M91.4058,171.982c-2.542,2.4219,1.9536,2.1709,1.9536,2.1709a6.6316,6.6316,0,0,0-.9141,5.2822c2.6963,9.0147,11.19,17.2129,9.9443,28.0547-.248,2.1543-5.7553,7.0635-6.21,9.28-1.418,6.9033-.5679,6.7608.4873,6.7754l23.1572.3374c2.6953.0391,1.751-4.17.27-9.7256-2.5366-9.5136,1.3316-22.7768,1.397-23.84.2378-3.9009-1.4116-8.4048-1.1152-11.8877.478-5.6172,2.4507-9.6138-1.1577-11.8809-2.7549-1.73-7.8286-1.5483-15.35-.3344C99.5952,166.9034,95.8857,169.0665,91.4058,171.982Z"/><path class="cls-15" d="M120.4336,223.8c1.9194-.607.5454-3.1528-.8086-8.2354-1.9985-7.499.666-20.0122,1.6255-24.36-.1621-.1006-.47,1.123-.47,1.123a10.0107,10.0107,0,0,1-3.0191.0249c-1.1274-.1645.3442-.6753.0005,0,.3193.2632-1.2422,17.666-1.0039,19.8736C117.2988,217.2223,118.9018,223.7169,120.4336,223.8Z"/><path class="cls-15" d="M93.6421,178.4752a5.3144,5.3144,0,0,0,.1919.9258c2.6953,9.0151,11.2788,16.3047,9.2807,28.82-.3418,2.1411-3.34,5.5146-4.9619,7.76l-.9194,2.2421c1.1621,2.7076,2.2124.2774,2.2124.2774s4.4668-6.8242,5.48-9.689-.729-14.1494-.729-14.1494c2.2529.8545,2.8056,1.5166,4.7007,1.2466,1.6723-.2378,4.7211-1.2114,6.1958-3.2832,0,0-.0347.2139,1.4116.3955a14.4151,14.4151,0,0,0,4.2759-.6929l.47-1.123s-.3706.5967-2.3521.7544-4.6235-1.3892-4.6235-1.3892a7.99,7.99,0,0,1-4.2827,2.2783,5.888,5.888,0,0,1-6.3384-3.2685c-.272-.4756.6519-4.1109.5039-4.544-.8-2.3379-1.1357-.7861-1.1357-.7861-1.4659.9531-1.8057,3.5527-3.0606,2.8218C99.0454,186.5372,98.0869,184.14,93.6421,178.4752Z"/><path class="cls-11" d="M105.0928,154.2c-1.0381.35-4.9073.3354-6.0352.7427,1.4248,2.5512,4.1885,6.8725,4.92,11.3247.0889.5439-3.5625,1.8042-3.4316,2.36.5449,2.313,5.5259,5.9263,7.7041,8.1216,4.62,4.6567,6.8379-4.6729,6.2431-10.5923-.1982-1.9712-5.125-.0351-5.1474-1.9741C109.3345,163.2481,105.6919,153.9981,105.0928,154.2Z"/><path class="cls-12" d="M105.0928,154.2c-1.0391.35-4.9078.3354-6.0352.7427a63.6428,63.6428,0,0,1,3.55,6.7671,21.1992,21.1992,0,0,0,3.542,1.498c.6006.0825,3.4751,3.1953,3.4751,3.1953l4.8691-.2461c-.644-1.2739-5.1264-.1655-5.1474-1.9746C109.3345,163.2481,105.6919,153.9981,105.0928,154.2Z"/><path class="cls-16" d="M97.1006,214.9776a8.8454,8.8454,0,0,1-.9214,1.792c-7.2935,5.7935-8.3858,16.6455-5.2031,31.19.6875,3.1455,2.5166,13.1054,2.9326,17.3144a80.46,80.46,0,0,1-1.2173,21.7149c4.89,7.289,16.1606,9.31,32.28,3.8144a75.0178,75.0178,0,0,1-2.3477-16.7881,197.6482,197.6482,0,0,1,2.6089-23.6679c2.99-15.5542,1.0352-25.02-4.4433-32.0069-2.13-2.7158-3.6924,2.26-15.73.1836C101.6323,217.9332,97.1006,214.9776,97.1006,214.9776Z"/><path class="cls-17" d="M113.98,292.57q3.3354-.7749,7.1714-2.0791c.4492-2.6787.4736-6.4922.747-9.0391.4654-4.3388-2.0879-6.5439-1.6855-9.8212,2.3867-19.4112,7.6723-32.4175-1.895-52.7071-.6807-1.4433-1.3223-1.0766-3.0049-.47a161.8175,161.8175,0,0,1,3.0869,30.8C118.437,262.6392,115.2632,284.7535,113.98,292.57Z"/><path class="cls-12" d="M113.6142,161.2931c4.1744-4.3164,1.4585-19.1319-2.1635-23.45-5.1807-6.1768-20.9048.3847-19.1494,8.6108C93.7656,153.315,106.0444,167.5167,113.6142,161.2931Z"/><path class="cls-11" d="M103.7768,159.7525c3.0738,1.5928,5.7891,2.0254,7.771,1.3443s3.1939-1.1568,2.9732-7.3911a73.9581,73.9581,0,0,0-1.46-11.8384s.7666.2153-3.8349,1.2075a30.9713,30.9713,0,0,1-10.2427-.0371,13.7059,13.7059,0,0,0-1.4688,3.9844A12.4352,12.4352,0,0,0,103.7768,159.7525Z"/><path class="cls-11" d="M103.83,354.6441s-3.5816-.5039-2.7569,1.8321,5.2115,10.8925,6.8169,11.3525,1.9917.708,2.0445.0488c.0258-.3193,1.1342-3.7822-.5953-6.6806a30.3964,30.3964,0,0,1-2.6406-7.1319C106.5957,354.2017,106.3862,356.0055,103.83,354.6441Z"/><path class="cls-14" d="M106.7832,149.4635c-.3086-.6524-3.1758-.6109-4.4487.4863s-.5406,1.6987-.5406,1.6987.1368.0811.2432-.1538a1.8409,1.8409,0,0,1,1.07-1.2153,6.7036,6.7036,0,0,1,3.0269-.3213C106.5864,149.9522,106.9038,149.8536,106.7832,149.4635Z"/><path class="cls-14" d="M105.3979,149.8292s.8975.6162-.351,1.373-1.7661-.1919-1.7373-.7788c.0131-.2651.417-.5962.7949-.7954A1.3139,1.3139,0,0,1,105.3979,149.8292Z"/><path class="cls-12" d="M111.5615,151.4786c-.063.92-1.6714,1.79-1.9609,1.8809s.1054,1,1.1743.3081a4.1641,4.1641,0,0,0,1.6294-1.7906C112.6846,151.37,112.6318,150.87,111.5615,151.4786Z"/><path class="cls-14" d="M105.9858,147.3809a2.8136,2.8136,0,0,0-3.2788-1.2348,4.3868,4.3868,0,0,0-2.5678,2.1387c-.0835.1728-.2212,1.229.3281.9755a2.1358,2.1358,0,0,0,.9165-1.1015,3.6265,3.6265,0,0,1,1.5268-1.2637,2.911,2.911,0,0,1,1.5347.0737C105.22,147.1793,105.87,147.524,105.9858,147.3809Z"/><path class="cls-14" d="M111.8052,148.45c-.0655-.3706.8877-1.3242,1.9716-1.3652a1.3429,1.3429,0,0,1,1.4375.6879c.2188.252.1719.3272.1719.3272a5.3955,5.3955,0,0,0-2.0776-.4546c-.6543.1328-.9634.9136-1.12,1.25S111.708,148.9449,111.8052,148.45Z"/><path class="cls-14" d="M113.7241,148.7193a.9766.9766,0,0,0,1.2168-.8515s-1.3613-.98-1.6191-.5845S112.1069,148.6856,113.7241,148.7193Z"/><path class="cls-16" d="M109.2007,140.1851c-2.6314.105-7.6573-.8564-11.0606,2.5186-2.7177,2.6943-1.4082,8.604-.768,10.7285,0,0-1.5581,2.6875-5.2-4.7763-3.83-7.8482-.7193-16.5762,7.9633-17.9639,7.75-1.2383,13.9156,1.833,12.6973,5.0488C112.5547,136.4752,110.3423,140.3717,109.2007,140.1851Z"/><path class="cls-14" d="M115.4365,145.0753c-.9975-3.07-5.0913-.3-4.5469-.1011.0791.0288-.0229.1626.1885.1543a11.5679,11.5679,0,0,1,2.4839-.5928A7.4625,7.4625,0,0,1,115.4365,145.0753Z"/><path class="cls-18" d="M108.2959,157.15c1.2778.5137,4.6465-1.7378,4.5537-.8579-.0542.5215-.54,2.4687-1.6909,2.685C110.3716,159.1256,109.0151,157.8678,108.2959,157.15Z"/><path class="cls-13" d="M105.9932,143.6129c-2.063.52-3.6817,1.6181-2.39,2.0312s6.8555-.896,7.2622-1.7773S109.0679,142.752,105.9932,143.6129Z"/><path class="cls-16" d="M96.0747,141.235c4.7632,2.3959,12.8662.72,14.7085.643,1.76-.0737,5.1274-3.0366,3.1167-4.9448C112.1719,135.2935,106.3755,134.23,96.0747,141.235Z"/><path class="cls-11" d="M98.0273,152.9078c-.434-.856-.709-3.1709-2.3711-1.269s.7261,4.705,1.9952,4.44.9951-1.3135.9951-1.3135Z"/><path class="cls-18" d="M97.7119,153.04c-.1977-.392-.3462-1.7192-.9394-.8735s.1875,2.4453.7675,2.3247.4561-.6006.4561-.6006Z"/><path class="cls-4" d="M104.0776,183.7667c-3.4941,10.1533,6.9741,14.3662,11.0264,6.1064,0,0,3.1348,4.1866,6.8682.99s.5166-8.83-1.6075-10.7271S104.0771,183.7667,104.0776,183.7667Z"/><path class="cls-14" d="M98.4053,276.7887c.3339,4.6718.3339,7.6748.3339,7.6748l2.3028,1.6191s-2.9287-49.33-2.8653-56.9267.73-9.9322.73-9.9322C87.68,232.065,97.3345,261.7838,98.4053,276.7887Z"/><path class="cls-13" d="M98.73,292.1207l4.5395,59.665L102.1494,294.15S101.7588,294.96,98.73,292.1207Z"/><path class="cls-14" d="M102.2012,359.8775c.955,2.4385,2.2773,6.23,3.8764,7.83.8985.8994,2.9693,1.292,4.085,1.46,1.519.2285,1.51.4091,1.5654-.9746-.6059-1.8164-.7881-3.66-1.3828-5.3213-.334-.9326-1.0781-1.8321-1.4165-2.5762-.0649.0518-.1255.1-.1836.1416a5.33,5.33,0,0,1,.127,1.3438c-.0889,1.5175-2.7471.1923-2.8716-.043-1.3184-2.4951-3.0122-7.1006-4.3291-7.4238-1.7085.4648-.83,2.9716-.7642,4.17.0513.9541.3565,4.0771.375,4.6972l.0127.4288c.0234.77.8594.9716.9439.16C102.3481,362.7252,102.2119,361.4312,102.2012,359.8775Z"/><path class="cls-4" d="M150.3569,163.3341s-8.27,23.9131-7.7685,23.5791S151.5083,165.9444,150.3569,163.3341Z"/><path class="cls-4" d="M124.6826,183.066s10.0649,10.9961,11.2759,11.4561,1.5029.5429,1.5029.5429S134.0376,196.3614,124.6826,183.066Z"/><path class="cls-15" d="M119.17,172.4474l-.209,8.1938c-.0171.7148,1.3794,1.0659,2.2163,2.5547,1.1084,1.9707,1.7871,5.0391.937,6.875a3.9114,3.9114,0,0,1-2.3745,1.959c-1.2524.459-4.8183-.6763-4.8183-.6763a4.59,4.59,0,0,0,4.15,1.7632c2.7983-.25,3.3964-1.0967,4.0649-2.5957,1.7729-3.9111-.9585-8.1919-2.7725-10.3853-.2363-.1577.7622-7.03.7622-7.03Z"/><path class="cls-14" d="M151.6167,155.7667s7.9385-26.7041,7.9531-27.3428-.4433-.4077-.5771-.27-8.9571,25.6865-9.0469,26.6441A1.0711,1.0711,0,0,0,151.6167,155.7667Z"/><path class="cls-11" d="M149.2827,153.0284c0-.1953,4.2188-3.7934,4.2969-4.8491s.3906-1.1734.1562-1.2905a17.2275,17.2275,0,0,0-3.7783,2.7187C149.6733,150.0435,148.188,151.816,149.2827,153.0284Z"/><path class="cls-11" d="M153.9956,147.7335s-2.1152,3.4951-2.0176,4.1987.43.6846.43.6846-1.23.9775-.7812,1.5439.43.5874.43.5874,2.03.606,2.2852.1953S155.4155,147.5128,153.9956,147.7335Z"/></g></g></svg>