<svg version="1.2" xmlns="http://www.w3.org/2000/svg" viewBox="0 0 30 16" width="30" height="16"><style>.s0{fill:#000000}</style><path class="s0" d="m21.3 0.8q0.2-0.1 0.4-0.1q0.2 0 0.4 0.1q0.2 0.1 0.3 0.2l6.4 6.4q0.1 0.1 0.2 0.3q0 0.1 0 0.3q0 0.2 0 0.4q-0.1 0.1-0.2 0.2l-6.4 6.4q-0.1 0.1-0.3 0.2q-0.2 0.1-0.4 0.1q-0.2 0-0.4-0.1q-0.2-0.1-0.3-0.2q-0.1-0.1-0.2-0.3q-0.1-0.2-0.1-0.4q0-0.2 0.1-0.4q0.1-0.2 0.2-0.3l4.6-4.6h-23.5q-0.5 0-0.7-0.3q-0.3-0.3-0.3-0.7q0-0.4 0.3-0.7q0.2-0.3 0.7-0.3h23.5l-4.6-4.6q-0.1-0.1-0.2-0.3q-0.1-0.2-0.1-0.4q0-0.2 0.1-0.4q0.1-0.2 0.2-0.3q0.1-0.1 0.3-0.2z" /></svg>