<svg xmlns="http://www.w3.org/2000/svg" viewBox="0 0 65 64" width="22" height="22">
	<path fill-rule="evenodd" d="m64.1 15.7q0.3 0.4 0.5 0.9q0.2 0.5 0.3 1q0.1 0.5 0.1 1v40.2q0 1.1-0.4 2q-0.4 1-1.1 1.7q-0.7 0.7-1.7 1.1q-0.9 0.4-2 0.4h-53.6q-1.1 0-2-0.4q-1-0.4-1.7-1.1q-0.7-0.7-1.1-1.7q-0.4-0.9-0.4-2v-53.6q0-1.1 0.4-2q0.4-1 1.1-1.7q0.7-0.7 1.7-1.1q0.9-0.4 2-0.4h40.2q0.5 0 1 0.1q0.5 0.1 1 0.3q0.5 0.2 0.9 0.5q0.4 0.3 0.8 0.6l13.4 13.4q0.3 0.4 0.6 0.8zm-3.1 2.9q0-0.1 0-0.2q0-0.1-0.1-0.3q0-0.1-0.1-0.2q-0.1 0-0.1-0.1l-13.5-13.5q-0.1 0-0.1-0.1q-0.1-0.1-0.3-0.1q-0.1-0.1-0.2-0.1q-0.1 0-0.2 0h-1.2v12.9q0 0.4-0.2 0.7q-0.1 0.4-0.4 0.7q-0.3 0.3-0.6 0.4q-0.4 0.2-0.8 0.2h-30.5q-0.4 0-0.8-0.2q-0.4-0.1-0.6-0.4q-0.3-0.3-0.5-0.7q-0.1-0.3-0.1-0.7v-12.9h-4.5q-0.3 0-0.5 0.1q-0.2 0.1-0.4 0.2q-0.1 0.2-0.2 0.4q-0.1 0.2-0.1 0.5v53.6q0 0.3 0.1 0.5q0.1 0.2 0.2 0.4q0.2 0.1 0.4 0.2q0.2 0.1 0.5 0.1h10.2v-20.7q0-0.4 0.1-0.7q0.2-0.4 0.4-0.7q0.3-0.3 0.7-0.4q0.4-0.2 0.8-0.2h29.2q0.4 0 0.8 0.2q0.4 0.1 0.7 0.4q0.2 0.3 0.4 0.7q0.1 0.3 0.1 0.7v20.7h10.2q0.3 0 0.5-0.1q0.2-0.1 0.4-0.2q0.1-0.2 0.2-0.4q0.1-0.2 0.1-0.5zm-15.4 41.4v-18.6h-25.2v18.6zm-31-56v10.9h26.5v-10.9zm3.1 7.3v-3c0-0.5 0.2-1 0.6-1.4c0.4-0.4 0.9-0.6 1.4-0.6c0.5 0 1 0.2 1.4 0.6c0.4 0.4 0.6 0.9 0.6 1.4v3c0 0.5-0.2 1-0.6 1.4c-0.4 0.4-0.9 0.6-1.4 0.6c-0.5 0-1-0.2-1.4-0.6c-0.4-0.4-0.6-0.9-0.6-1.4z" fill="#619f25" />
</svg>