<svg xmlns="http://www.w3.org/2000/svg" viewBox="0 0 16 18" width="16" height="18">
	<style>
		.s0 { fill: #b83539 } 
	</style>
	<path class="s0" d="m15.43 15.53c-0.07 0.12-0.19 0.19-0.33 0.19h-14.2c-0.13 0-0.26-0.07-0.32-0.19c-0.07-0.12-0.07-0.26 0-0.38l1.28-2.14c0.59-0.99 0.9-2.12 0.9-3.27v-1.87c0-2.36 1.58-4.36 3.74-5.01v-1.34c0-0.82 0.67-1.49 1.49-1.49c0.82 0 1.49 0.67 1.49 1.49v1.34c2.16 0.64 3.74 2.64 3.74 5.01v1.87c0 1.15 0.31 2.28 0.91 3.27l1.28 2.14c0.07 0.11 0.07 0.26 0 0.38zm-5.07 0.94c-0.42 0.88-1.31 1.49-2.35 1.49c-1.04 0-1.93-0.61-2.35-1.49h4.71z" />
</svg>