<svg xmlns="http://www.w3.org/2000/svg" viewBox="0 0 17 13" width="17" height="13">
	<style>
		.s5 { fill: #000000 } 
	</style>
	<path class="s5" d="m13.91 3.16l-0.4 0.41l-1.18 1.21l-1.19 1.2l-0.59 0.6l-0.6 0.6l-1.19 1.2l-1.2 1.19c-0.4 0.4-0.8 0.79-1.2 1.19c-0.03 0.04-0.07 0.08-0.09 0.12c-0.12 0.24-0.03 0.53 0.21 0.65l0.02 0.01l0.03 0.02c-0.02 0.02-0.02 0.03-0.01 0.03l0.2 0.06l0.53 0.27l-1.13 0.97c-0.3 0.26-0.75 0.17-0.94-0.17l-1.55-2.83c0.2-0.14 0.41-0.28 0.61-0.41l0.85-0.57c0.28-0.19 0.57-0.38 0.85-0.57l0.85-0.57c0.28-0.19 0.57-0.38 0.86-0.57l0.86-0.56c0.29-0.19 0.57-0.38 0.86-0.56l1.72-1.12c0.29-0.19 0.58-0.37 0.86-0.55l0.86-0.55l0.86-0.55c0.07-0.05 0.15-0.1 0.22-0.14zm3.19-2.03l-3.1 11.41c-0.07 0.26-0.35 0.42-0.61 0.34l-4.94-1.5l-0.93-0.44c0.23-0.25 0.46-0.5 0.69-0.74l1.15-1.24l1.16-1.23l0.58-0.62l0.58-0.61l1.16-1.23l1.17-1.22l1.17-1.22c0.39-0.41 0.78-0.81 1.17-1.22l0 0c0.1-0.11 0.12-0.27 0.04-0.4c-0.1-0.15-0.3-0.2-0.45-0.1l-1.73 1.11c-0.29 0.18-0.58 0.37-0.86 0.55l-0.87 0.55l-0.87 0.55c-0.29 0.18-0.58 0.37-0.87 0.55l-1.74 1.09c-0.29 0.18-0.58 0.36-0.87 0.54l-0.87 0.54c-0.29 0.18-0.58 0.36-0.87 0.54l-0.88 0.53c-0.29 0.18-0.58 0.36-0.88 0.53l-0.88 0.53c-0.31 0.19-0.62 0.37-0.94 0.56l-1.98-0.52c-0.44-0.12-0.49-0.71-0.09-0.91l15.09-7.33c0.16-0.1 0.31-0.16 0.44-0.2c0.5-0.15 0.96 0.31 0.82 0.81z" />
</svg>